<svg xmlns="http://www.w3.org/2000/svg" xmlns:svg="http://www.w3.org/2000/svg" id="svg8" width="577.059" height="501.036" version="1.1" viewBox="0 0 152.68 132.566"><metadata id="metadata5"/><g id="layer2" style="display:inline"><g id="g30" transform="matrix(11.603869,0,0,10.763922,48.154167,38.326791)" style="display:inline"><path id="path1807" fill="#ffcc4d" d="m -5.2280231,3.5166736 c 0,4.380328 -4.0268934,7.9313854 -8.9941779,7.9313854 -4.966785,0 -8.994178,-3.5510574 -8.994178,-7.9313854 0,-4.37988648 4.027393,-7.9313842 8.994178,-7.9313842 4.9672845,0 8.9941779,3.55149772 8.9941779,7.9313842" style="stroke-width:.469227"/><path id="path1809" d="m -13.911651,9.2932726 c 1.805681,-0.06849 3.009625,0.118193 4.4992997,0.379926 0.3402112,0.05922 0.9967872,-0.03781 0.9692802,-1.1379324 -0.055015,-2.2002496 -2.4139059,-4.8636983 -5.6061199,-4.7426187 -3.191715,0.1210611 -5.413564,2.9582565 -5.358548,5.1585071 0.02751,1.1001254 0.687702,1.1477614 1.024296,1.0623174 1.473775,-0.3741374 2.666111,-0.6517104 4.471792,-0.7201994 z" style="fill:#2b1100;stroke-width:.523841"/><path id="path1811" d="m -19.862822,-0.79861138 c -0.0221,-0.0485045 -0.03546,-0.10262636 -0.03817,-0.16149089 -0.01184,-0.24727063 0.169767,-0.47697713 0.405516,-0.51341123 2.500327,-0.3855217 3.886541,1.44408389 3.944303,1.5222564 0.137957,0.18830433 0.09602,0.47300443 -0.09462,0.63862893 -0.190437,0.1650057 -0.457083,0.1476757 -0.59588,-0.0381544 -0.04773,-0.0637301 -1.183797,-1.53979624 -3.211284,-1.22743193 -0.179818,0.0274735 -0.339263,-0.0654981 -0.409855,-0.22039819 z" style="fill:#1a1a1a;stroke-width:.438656"/><path id="path1813" d="m -7.0819421,0.62225163 c -0.139318,0.0830648 -0.342946,0.0537886 -0.515393,-0.0909466 -1.9580293,-1.64681263 -3.8024339,-1.13974338 -3.8212629,-1.13484791 -0.222707,0.0644054 -0.504528,-0.10122389 -0.628659,-0.37036612 -0.124482,-0.2689339 -0.0437,-0.5380585 0.179061,-0.603128 0.093,-0.026957 2.3048177,-0.6346938 4.7011459,1.38075305 0.225906,0.19010157 0.312423,0.50699658 0.193395,0.70775268 -0.02723,0.047889 -0.06466,0.084771 -0.108287,0.1107811 z" style="fill:#000;stroke-width:.471953"/><path id="path1815" d="m -14.732784,2.1566846 c -0.02998,-0.057706 -1.627364,-2.0643358 -3.105407,-2.0643358 -1.477544,0 -1.318729,2.00663 -1.34871,2.0643358 -0.04597,0.088482 -0.01599,0.1919254 0.07195,0.2526238 0.08794,0.060698 0.213361,0.062835 0.304802,0.00598 0.0065,-0.00384 0.193252,-0.1372848 1.412962,-0.1372848 1.212216,0 2.273152,0.1283082 2.287143,0.1368573 0.04397,0.02821 0.09694,0.042318 0.148903,0.042318 0.05496,0 0,0 0,0 0.08894,-0.060698 0.274323,-0.2115882 0.228353,-0.3004984 z" style="fill:#2b1100;stroke-width:.462155"/><path id="path1817" d="m -8.7366651,2.2203432 c -0.02998,-0.059485 0.494024,-2.07834487 -0.8598657,-1.51465647 -3.2649392,1.35934677 -3.5642712,1.45517097 -3.5942522,1.51465647 -0.04597,0.091211 -0.01599,0.1978438 0.07245,0.2604137 0.08744,0.06257 0.212863,0.064773 0.304803,0.00617 0.006,-0.00396 0.699646,0.1277157 1.918857,0.1277157 1.2122147,0 1.7667569,-0.1369689 1.7807489,-0.1281563 0.04397,0.029081 0.09693,0.043623 0.148904,0.043623 0.05496,0 0.110429,-0.016303 0.155898,-0.048029 0.08845,-0.06257 0.118924,-0.1700841 0.07245,-0.2617358 z" style="fill:#2b1100;stroke-width:.469227"/><path id="path1819" fill="#fff" d="m -9.3707657,9.6962766 c 0,0 -0.7675583,-0.159043 -2.3125433,-0.344595 -0.577892,-0.0694 -1.317118,-0.08852 -2.155422,-0.02847 -2.969798,0.212725 -4.517676,0.6985094 -4.517676,0.6985094 0,0 2.172052,-2.1002348 5.723434,-2.2207799 3.5513839,-0.1205439 3.2622073,1.8953375 3.2622073,1.8953375 z" style="stroke-width:.627737"/><path style="fill:#00f;stroke-width:.211118" id="path1821" d="m -8.2166011,4.8146843 c 0.397943,0.6516751 1.061218,1.0455535 1.481892,0.8800179 0.420777,-0.1652927 0.439365,-0.8274368 0.04142,-1.4791118 -0.397944,-0.6516757 -2.049903,-2.119833 -2.202373,-2.0599479 -0.152002,0.060128 0.281401,2.007609 0.679059,2.6590418 z"/><path style="fill:#00f;stroke-width:.254693" id="path1823" d="m -18.442467,2.9378506 c 0.137163,-1.0298916 -0.169261,-1.6523669 -0.684605,-1.390759 -0.51508,0.2612245 -1.04393,1.3076591 -1.181262,2.3375507 -0.137332,1.0298916 0.249355,3.3501299 0.43605,3.2554887 0.186789,-0.095021 1.292579,-3.1727744 1.429817,-4.2022804 z"/><path id="path1825" d="m -15.768203,1.8399756 c -0.01843,-0.035282 -1.00065,-1.26207807 -1.909484,-1.26207807 -0.908526,0 -0.810873,1.22679877 -0.829308,1.26207807 -0.02827,0.054096 -0.0098,0.1173378 0.04424,0.1544473 0.05408,0.03711 0.131194,0.038414 0.18742,0.00366 0.004,-0.00234 0.118829,-0.083932 0.868816,-0.083932 0.745379,0 1.397738,0.078444 1.406341,0.08367 0.02704,0.017246 0.05961,0.025873 0.09156,0.025873 0.0338,0 0,0 0,0 0.05469,-0.03711 0.168678,-0.1293586 0.140411,-0.1837157 z" style="fill:#f9f9f9;stroke-width:.28336"/><path id="ellipse1827" d="m -16.900272,1.3117361 a 0.47186676,0.36105165 0 0 1 -0.471867,0.3610517 0.47186676,0.36105165 0 0 1 -0.471867,-0.3610517 0.47186676,0.36105165 0 0 1 0.471867,-0.36105164 0.47186676,0.36105165 0 0 1 0.471867,0.36105164 z" style="fill:#000;stroke-width:.0111085"/><path id="path1829" d="m -9.3287891,2.0695597 c -0.017544,-0.035502 0.289124,-1.24043057 -0.5032313,-0.9040017 -1.9107836,0.8113071 -2.0859656,0.8684989 -2.1035116,0.9040017 -0.02691,0.054438 -0.0094,0.1180801 0.0424,0.1554246 0.05118,0.037344 0.124577,0.03866 0.178384,0.00366 0.0035,-0.00234 0.409463,0.076225 1.122999,0.076225 0.7094403,0 1.0339827,-0.081747 1.0421705,-0.076489 0.025732,0.01736 0.056728,0.026037 0.087141,0.026037 0.03217,0 0.064632,-0.00973 0.091239,-0.028668 0.051756,-0.037344 0.069594,-0.1015129 0.042405,-0.1562135 z" style="fill:#fff;stroke-width:.277318"/><path id="ellipse1831" d="m -9.6611441,1.8697243 a 0.47186676,0.36105165 0 0 1 -0.4718669,0.3610516 0.47186676,0.36105165 0 0 1 -0.471867,-0.3610516 0.47186676,0.36105165 0 0 1 0.471867,-0.3610517 0.47186676,0.36105165 0 0 1 0.4718669,0.3610517 z" style="fill:#000;stroke-width:.0111085"/></g></g><g id="layer1" transform="translate(-56.629215,-0.43855676)" style="display:inline"><g id="g1846" transform="matrix(8.4877168,0,0,8.3570379,91.226226,30.06974)" style="opacity:1"><path id="path10" fill="#ffcc4d" d="m 13.912229,4.385728 c 0,4.380328 -4.0268934,7.931385 -8.9941778,7.931385 -4.96678503,0 -8.9941781,-3.551057 -8.9941781,-7.931385 0,-4.37988651 4.02739307,-7.9313842 8.9941781,-7.9313842 4.9672844,0 8.9941778,3.55149769 8.9941778,7.9313842" style="stroke-width:.469227"/><path id="path161" d="m 5.2286012,10.162327 c 1.805681,-0.06849 3.0096244,0.118193 4.4992996,0.379926 0.3402112,0.05922 0.9967872,-0.03781 0.9692802,-1.1379324 C 10.642166,7.204071 8.283275,4.5406223 5.0910612,4.6617019 1.8993463,4.782763 -0.32250256,7.6199584 -0.26748676,9.820209 c 0.0275079,1.100125 0.68770187,1.147761 1.02429584,1.062317 1.47377542,-0.374137 2.66611052,-0.65171 4.47179212,-0.720199 z" style="fill:#2b1100;stroke-width:.523841"/><path id="path159" d="m -0.72257028,0.07044299 c -0.0221048,-0.04850447 -0.0354598,-0.10262636 -0.038174,-0.16149089 -0.0118437,-0.24727058 0.16976698,-0.47697709 0.40551619,-0.51341125 C 2.1450994,-0.98998087 3.531313,0.83962476 3.5890747,0.91779727 3.7270324,1.1061016 3.6850981,1.3908017 3.4944509,1.5564262 3.3040137,1.7214319 3.0373683,1.7041019 2.8985707,1.5182718 2.8508367,1.4545417 1.714774,-0.02152444 -0.31271301,0.29083987 -0.49253092,0.31831341 -0.65197602,0.2253418 -0.72256839,0.07044168 Z" style="fill:#1a1a1a;stroke-width:.438656"/><path id="path157" d="M 12.05831,1.491306 C 11.918992,1.5743708 11.715364,1.5450946 11.542917,1.4003594 9.5848877,-0.24645322 7.7404827,0.26061602 7.7216539,0.26551149 7.4989466,0.32991689 7.217126,0.1642876 7.0929953,-0.10485463 6.9685128,-0.37378854 7.0492988,-0.64291311 7.272056,-0.70798267 c 0.093,-0.0269575 2.3048178,-0.63469373 4.701146,1.38075309 0.225906,0.19010157 0.312423,0.50699658 0.193395,0.70775268 -0.02723,0.047889 -0.06466,0.084771 -0.108287,0.1107811 z" style="fill:#000;stroke-width:.471953"/><path id="path155" d="M 4.4074677,3.025739 C 4.3774871,2.9680332 2.7801042,0.96140317 1.302061,0.96140317 c -1.47754368,0 -1.31872921,2.00663003 -1.34870981,2.06433583 -0.04596994,0.088482 -0.01598934,0.1919254 0.07195343,0.2526238 0.08794279,0.060698 0.21336189,0.062835 0.30480262,0.00598 0.006494,-0.00384 0.19325185,-0.1372848 1.41296226,-0.1372848 1.2122153,0 2.2731515,0.1283082 2.2871425,0.1368573 0.043972,0.02821 0.096937,0.042318 0.1489035,0.042318 0.054964,0 0,0 0,0 0.088943,-0.060698 0.2743224,-0.2115882 0.2283522,-0.3004984 z" style="fill:#2b1100;stroke-width:.462155"/><path id="path12" d="m 10.403587,3.0893976 c -0.02998,-0.059485 0.494024,-2.0783449 -0.8598657,-1.5146565 -3.264939,1.3593468 -3.5642712,1.455171 -3.5942518,1.5146565 -0.04597,0.091211 -0.015989,0.1978438 0.072453,0.2604137 0.087443,0.06257 0.2128622,0.064773 0.3048028,0.00617 0.00599,-0.00396 0.6996454,0.1277157 1.9188563,0.1277157 1.2122152,0 1.7667574,-0.1369689 1.7807494,-0.1281563 0.04397,0.029081 0.09693,0.043623 0.148904,0.043623 0.05496,0 0.110429,-0.016303 0.155898,-0.048029 0.08845,-0.06257 0.118924,-0.1700841 0.07245,-0.2617358 z" style="fill:#2b1100;stroke-width:.469227"/><path id="path14" fill="#fff" d="m 9.7694864,10.565331 c 0,0 -0.7675587,-0.159043 -2.3125437,-0.344595 -0.5778919,-0.0694 -1.3171174,-0.08852 -2.1554212,-0.02847 -2.9697986,0.212725 -4.51767687,0.698509 -4.51767687,0.698509 0,0 2.17205227,-2.1002344 5.72343487,-2.2207795 3.5513835,-0.1205439 3.2622069,1.8953375 3.2622069,1.8953375 z" style="stroke-width:.627737"/><path style="fill:#00f;stroke-width:.211118" id="path165" d="m 10.923651,5.6837387 c 0.397943,0.6516751 1.061218,1.0455535 1.481892,0.8800179 0.420777,-0.1652927 0.439365,-0.8274368 0.04142,-1.4791118 -0.397944,-0.6516757 -2.049903,-2.119833 -2.202373,-2.0599479 -0.152002,0.060128 0.281401,2.007609 0.679059,2.6590418 z"/><path style="fill:#00f;stroke-width:.254693" id="path16" d="M 0.69778508,3.806905 C 0.83494849,2.7770134 0.52852364,2.1545381 0.01318034,2.416146 -0.50190009,2.6773705 -1.0307498,3.7238051 -1.168082,4.7536967 -1.3054143,5.7835883 -0.91872723,8.1038266 -0.73203193,8.0091854 -0.54524254,7.9141643 0.56054678,4.836411 0.69778508,3.806905 Z"/><path id="path155-7" d="M 3.372049,2.70903 C 3.3536161,2.6737484 2.3713992,1.4469519 1.4625655,1.4469519 c -0.90852667,0 -0.81087328,1.2267988 -0.82930806,1.2620781 -0.0282663,0.054096 -0.009832,0.1173378 0.0442435,0.1544473 0.0540751,0.03711 0.13119406,0.038414 0.18742009,0.00366 0.003994,-0.00234 0.11882864,-0.083932 0.86881617,-0.083932 0.7453784,0 1.3977376,0.078444 1.4063406,0.08367 0.027037,0.017246 0.059606,0.025873 0.09156,0.025873 0.033798,0 0,0 0,0 0.05469,-0.03711 0.1686783,-0.1293586 0.1404116,-0.1837157 z" style="fill:#f9f9f9;stroke-width:.28336"/><path id="path182" d="M 2.2399793,2.1807904 A 0.47186676,0.36105165 0 0 1 1.7681125,2.5418421 0.47186676,0.36105165 0 0 1 1.2962458,2.1807904 0.47186676,0.36105165 0 0 1 1.7681125,1.8197388 0.47186676,0.36105165 0 0 1 2.2399793,2.1807904 Z" style="fill:#000;stroke-width:.0111085"/><path id="path12-5" d="M 9.811463,2.9386141 C 9.7939192,2.9031122 10.100587,1.6981835 9.3082317,2.0346124 7.3974483,2.8459195 7.2222661,2.9031113 7.2047205,2.9386141 c -0.026907,0.054438 -0.00936,0.1180801 0.042402,0.1554246 0.051176,0.037344 0.1245764,0.03866 0.178384,0.00366 0.00349,-0.00234 0.4094625,0.076225 1.1229981,0.076225 0.7094408,0 1.0339832,-0.081747 1.042171,-0.076489 0.025732,0.01736 0.056728,0.026037 0.087141,0.026037 0.03217,0 0.064632,-0.00973 0.091239,-0.028668 0.051756,-0.037344 0.069594,-0.1015129 0.042405,-0.1562135 z" style="fill:#fff;stroke-width:.277318"/><path id="path182-0" d="M 9.479108,2.7387786 A 0.47186676,0.36105165 0 0 1 9.0072412,3.0998302 0.47186676,0.36105165 0 0 1 8.5353745,2.7387786 0.47186676,0.36105165 0 0 1 9.0072412,2.3777269 0.47186676,0.36105165 0 0 1 9.479108,2.7387786 Z" style="fill:#000;stroke-width:.0111085"/></g></g></svg>