<svg id="a39ef968-f52f-4263-85df-828550f31142" data-name="Laag 1" xmlns="http://www.w3.org/2000/svg" viewBox="0 0 216.21 112.68"><defs><style>.f324a362-e0d8-4669-b87f-a45fd41ec236{fill:#fcc00d;}.aba2ae02-7a3f-413d-b3b0-6fc8216fcd59{fill:#15453f;}.b194ac61-f35d-473e-98f2-6aed70aea3ce{fill:none;}.a85325e0-8b16-4406-991d-5796540de8d6{font-size:21px;fill:#15443d;font-family:MaturaMTScriptCapitals, Matura MT Script Capitals;}.bcef9b40-3c50-4eab-a924-74854d4a9f93{letter-spacing:-0.01em;}.f272704d-759f-4019-a61e-3e156b169bc9{font-size:11px;fill:#12352f;font-family:Rockwell-ExtraBold, Rockwell Extra Bold;font-weight:800;}.af22cef5-c2bf-41c3-935a-14bd320c6fad{letter-spacing:-0.1em;}.a880c7bf-a04a-4316-a778-651ae89a6ca0{letter-spacing:-0.04em;}.fbdb29d6-8f3f-46dc-beda-630a223bdb87{letter-spacing:-0.02em;}.e3b541fd-a3a1-496b-a14b-03c39ab19dca{letter-spacing:-0.02em;}.b1dcc8b1-3480-4203-b423-0e89983ff117{font-size:6px;fill:#1d1d1b;font-family:ArialMT, Arial;}</style></defs><title>logo blv</title><path class="f324a362-e0d8-4669-b87f-a45fd41ec236" d="M129.47,234.71A41.81,41.81,0,0,0,58.3,277.64c1.2-.3,2.46-.59,3.78-.84l5.2-1.09c1.21-.27,2.49-.47,3.72-.67.66-.1,1.32-.2,2-.32,3.5-.61,7.42-1.16,12.35-1.74,1.47-.19,3-.32,4.49-.44l2.06-.17c2.5-.23,4.62-.4,6.79-.48l2.33-.11,2.93-.14V253.47l-.47-2.46,4.37-9.77,13-6.53Z" transform="translate(-39.84 -195.04)"/><path class="aba2ae02-7a3f-413d-b3b0-6fc8216fcd59" d="M156.25,242.43l-11.73-5.73-11.67,5.68L128.1,253v22.76h10.82v-10h11.21V277.9L161,279V253Zm-8.57,8.1h-6.31v-3.32a3.16,3.16,0,1,1,6.31,0Z" transform="translate(-39.84 -195.04)"/><rect class="aba2ae02-7a3f-413d-b3b0-6fc8216fcd59" x="66.22" y="58.23" width="20.49" height="22.5"/><polygon class="aba2ae02-7a3f-413d-b3b0-6fc8216fcd59" points="84.26 45.76 92.19 41.8 88.54 41.8 80.96 45.76 84.26 45.76"/><polygon class="aba2ae02-7a3f-413d-b3b0-6fc8216fcd59" points="84.22 41.8 81.47 41.8 73.32 45.76 76.64 45.76 84.22 41.8"/><polygon class="aba2ae02-7a3f-413d-b3b0-6fc8216fcd59" points="92.19 45.76 100.34 41.8 96.67 41.8 88.73 45.76 92.19 45.76"/><polygon class="aba2ae02-7a3f-413d-b3b0-6fc8216fcd59" points="85.93 47.76 83.52 53.8 82.55 56.22 86.83 56.22 87.1 56.22 90.88 47.76 85.93 47.76"/><polygon class="aba2ae02-7a3f-413d-b3b0-6fc8216fcd59" points="78.36 47.76 75.3 55.43 74.97 56.22 79.96 56.22 80.71 54.35 83.34 47.76 78.36 47.76"/><polygon class="aba2ae02-7a3f-413d-b3b0-6fc8216fcd59" points="69.62 47.76 65.84 56.22 71.27 56.22 72.39 56.22 72.49 55.98 75.77 47.76 69.62 47.76"/><path class="aba2ae02-7a3f-413d-b3b0-6fc8216fcd59" d="M91.66,265.05c0,5.89,1.68,7.07,3.77,7.07s3.77-1.18,3.77-7.07-3.77-18.22-3.77-18.22S91.66,259.17,91.66,265.05Z" transform="translate(-39.84 -195.04)"/><rect class="aba2ae02-7a3f-413d-b3b0-6fc8216fcd59" x="94.74" y="269.7" width="1.38" height="6.07" transform="translate(151.01 350.42) rotate(180)"/><path class="aba2ae02-7a3f-413d-b3b0-6fc8216fcd59" d="M76.4,263.33c0,7.32,2.1,8.79,4.69,8.79s4.69-1.47,4.69-8.79-4.69-22.67-4.69-22.67S76.4,256,76.4,263.33Z" transform="translate(-39.84 -195.04)"/><rect class="aba2ae02-7a3f-413d-b3b0-6fc8216fcd59" x="80.4" y="269.7" width="1.38" height="6.07" transform="translate(122.34 350.42) rotate(180)"/><path class="aba2ae02-7a3f-413d-b3b0-6fc8216fcd59" d="M178.25,283.07c-1.9-.63-4.22-1.29-6.91-2l-4.28-1.14-4.79-1.06c-3.34-.79-7-1.44-10.86-2.09-1.93-.37-3.93-.6-6-.91s-4.12-.59-6.26-.79l-1.57-.15-4.92-.49c-2.2-.19-4.43-.3-6.67-.43s-4.51-.25-6.79-.28-4.56-.15-6.85-.11l-6.85.09c-2.28,0-4.54.2-6.79.3s-4.47.27-6.67.47-4.37.33-6.49.61c-4.26.49-8.36,1-12.23,1.72-1.93.34-3.83.57-5.63,1l-5.23,1.1c-1.89.37-3.66.8-5.35,1.24-1.3.33-2.56.67-3.74,1-2.7.66-5,1.45-6.88,2-3.81,1.15-6,2-6,2l6.2-.79c2-.24,4.36-.62,7.1-.94l4.35-.5.38-.05c1.42-.17,2.89-.37,4.44-.5,3.37-.33,7-.73,10.86-1s7.92-.57,12.12-.86c2.1-.15,4.24-.2,6.41-.32s4.35-.21,6.56-.25l6.67-.16,6.72,0c2.24-.05,4.49,0,6.72.06s4.46,0,6.67.15l6.56.22,3,.16,3.42.18c2.11.07,4.16.3,6.19.41s4,.22,5.93.43c3.85.4,7.5.64,10.86,1.05l4.83.52,4.35.54c2.73.36,5.13.6,7.09.91,3.93.56,6.2.81,6.2.81S182.05,284.28,178.25,283.07Z" transform="translate(-39.84 -195.04)"/><path class="f324a362-e0d8-4669-b87f-a45fd41ec236" d="M247,267.09A112.31,112.31,0,0,0,206.08,280h8.17A118,118,0,0,1,247,270.84Z" transform="translate(-39.84 -195.04)"/><path class="f324a362-e0d8-4669-b87f-a45fd41ec236" d="M222.73,280H247v-5.9A115.83,115.83,0,0,0,222.73,280Z" transform="translate(-39.84 -195.04)"/><path class="f324a362-e0d8-4669-b87f-a45fd41ec236" d="M247,263.88v-3.17l-1.36.1-.23,0c-.8.06-1.6.14-2.41.23l-.55.06-2.33.27-.4.05c-1.84.25-3.72.54-5.62.89l-.47.09-2.46.48-.45.1c-1.93.41-3.89.88-5.86,1.41l-.37.11c-.86.23-1.72.48-2.58.74l-.51.15c-2,.62-4.08,1.31-6.13,2.08l-.43.16c-.92.35-1.83.71-2.75,1.08l-.55.23q-3.1,1.29-6.23,2.82l-.74.37c-.86.44-1.73.89-2.6,1.36l-.53.28c-1,.55-2,1.13-3,1.72l-.68.41c-.8.48-1.61,1-2.41,1.49l-.84.54c-1,.65-2,1.31-3,2h8.34A114,114,0,0,1,247,263.88Z" transform="translate(-39.84 -195.04)"/><line class="f324a362-e0d8-4669-b87f-a45fd41ec236" x1="198.34" y1="85.29" x2="197.35" y2="85.29"/><polygon class="b194ac61-f35d-473e-98f2-6aed70aea3ce" points="154.89 40.07 157.74 40.07 156.58 38.62 153.14 38.62 149.63 38.62 148.47 40.07 151.31 40.07 154.89 40.07"/><rect class="b194ac61-f35d-473e-98f2-6aed70aea3ce" x="148.56" y="50.53" width="9.08" height="9.08"/><path class="aba2ae02-7a3f-413d-b3b0-6fc8216fcd59" d="M194.73,235.12h-6.42l-6.41,8L176,280.33h11.77v-10a5.16,5.16,0,1,1,10.32,0v10h11.77L204,243.15l-6.41-8Zm2.76,19.54H188.4v-9.08h9.09Z" transform="translate(-39.84 -195.04)"/><polygon class="aba2ae02-7a3f-413d-b3b0-6fc8216fcd59" points="156.38 30.99 156.38 31 165.94 38.62 169.38 38.62 159.73 28.32 156.38 30.98 156.38 30.99"/><polygon class="aba2ae02-7a3f-413d-b3b0-6fc8216fcd59" points="155.9 24.22 153.14 21.28 150.34 24.26 153.1 27.72 155.9 24.22"/><polygon class="aba2ae02-7a3f-413d-b3b0-6fc8216fcd59" points="156.58 38.62 153.11 34.27 153.1 34.27 153.09 34.27 149.63 38.62 153.14 38.62 156.58 38.62"/><polygon class="aba2ae02-7a3f-413d-b3b0-6fc8216fcd59" points="149.82 30.99 149.82 30.98 146.52 28.35 136.9 38.62 140.27 38.62 149.82 31 149.82 30.99"/><path class="aba2ae02-7a3f-413d-b3b0-6fc8216fcd59" d="M191.54,226a1.4,1.4,0,0,0,2.39,1h0a1.35,1.35,0,0,0,.41-1,1.38,1.38,0,0,0-.4-1h0a1.43,1.43,0,0,0-1-.41,1.39,1.39,0,0,0-1,.41h0A1.39,1.39,0,0,0,191.54,226Z" transform="translate(-39.84 -195.04)"/><polygon class="aba2ae02-7a3f-413d-b3b0-6fc8216fcd59" points="122.11 55.5 128.59 61.98 151.15 33.68 150.41 32.94 122.11 55.5"/><polygon class="aba2ae02-7a3f-413d-b3b0-6fc8216fcd59" points="128.59 0 122.11 6.48 150.41 29.04 151.15 28.3 128.59 0"/><polygon class="aba2ae02-7a3f-413d-b3b0-6fc8216fcd59" points="184.09 6.48 177.62 0 155.05 28.3 155.79 29.04 184.09 6.48"/><polygon class="aba2ae02-7a3f-413d-b3b0-6fc8216fcd59" points="177.62 61.98 184.09 55.5 155.79 32.94 155.05 33.68 177.62 61.98"/><path class="aba2ae02-7a3f-413d-b3b0-6fc8216fcd59" d="M82.84,84.22H205.37a10.84,10.84,0,0,1,10.84,10.84v2.11a0,0,0,0,1,0,0H72a0,0,0,0,1,0,0V95.06A10.84,10.84,0,0,1,82.84,84.22Z"/><path class="aba2ae02-7a3f-413d-b3b0-6fc8216fcd59" d="M10.84,84.22H133.37a10.84,10.84,0,0,1,10.84,10.84v2.11a0,0,0,0,1,0,0H0a0,0,0,0,1,0,0V95.06A10.84,10.84,0,0,1,10.84,84.22Z"/><text class="a85325e0-8b16-4406-991d-5796540de8d6" transform="translate(15.66 28.35) scale(0.83 1)"><tspan class="bcef9b40-3c50-4eab-a924-74854d4a9f93">b</tspan><tspan x="9.57" y="0">lv “de Rijp”</tspan></text><text class="f272704d-759f-4019-a61e-3e156b169bc9" transform="translate(0 109.71) scale(0.74 1)">VERENIGING<tspan class="af22cef5-c2bf-41c3-935a-14bd320c6fad" x="81.58" y="0"> </tspan><tspan class="a880c7bf-a04a-4316-a778-651ae89a6ca0" x="83.23" y="0">V</tspan><tspan x="90.99" y="0">AN EIGE</tspan><tspan class="fbdb29d6-8f3f-46dc-beda-630a223bdb87" x="142.31" y="0">N</tspan><tspan x="151.54" y="0">AREN RESO</tspan><tspan class="e3b541fd-a3a1-496b-a14b-03c39ab19dca" x="223.72" y="0">R</tspan><tspan x="232.84" y="0">T DE RIJP</tspan></text><text class="b1dcc8b1-3480-4203-b423-0e89983ff117" transform="translate(33.59 35.58)">blvderijp.nl</text><path class="aba2ae02-7a3f-413d-b3b0-6fc8216fcd59" d="M235.74,252.24c0,5.88-1.69,7.06-3.77,7.06s-3.77-1.18-3.77-7.06S232,234,232,234,235.74,246.35,235.74,252.24Z" transform="translate(-39.84 -195.04)"/><rect class="aba2ae02-7a3f-413d-b3b0-6fc8216fcd59" x="191.44" y="61.84" width="1.38" height="6.07"/><path class="aba2ae02-7a3f-413d-b3b0-6fc8216fcd59" d="M251,247.83c0,7.32-2.1,8.79-4.69,8.79s-4.69-1.47-4.69-8.79,4.69-22.67,4.69-22.67S251,240.51,251,247.83Z" transform="translate(-39.84 -195.04)"/><rect class="aba2ae02-7a3f-413d-b3b0-6fc8216fcd59" x="205.78" y="59.16" width="1.38" height="6.07"/></svg>