<svg id="abb62255-ff3c-45e1-8ffc-70daca07a30d" data-name="Laag 1" xmlns="http://www.w3.org/2000/svg" viewBox="0 0 216.2 112.01"><defs><style>.b81a8c28-8075-4e0a-a012-1d508cdcdd02{fill:#fcc00d;}.e8f286ac-f3f6-4e32-8480-90188e5accf3{fill:#15453f;}.b402ee8c-5cba-4e55-af60-d3d4d3d12584{fill:none;}.f5eeaa4b-07a5-43ae-9d27-a1fad5f55333{fill:#15443d;}.afb8be9d-4ec9-42b0-861f-bda867d9fab3{fill:#12352f;}.b6de0418-7239-4539-ba0e-b0440db86921{fill:#1d1d1b;}</style></defs><title>logo blv outlined</title><path class="b81a8c28-8075-4e0a-a012-1d508cdcdd02" d="M129.47,234.71A41.81,41.81,0,0,0,58.3,277.64c1.2-.3,2.46-.59,3.78-.84l5.2-1.09c1.21-.27,2.49-.47,3.72-.67.66-.1,1.32-.2,2-.32,3.5-.61,7.42-1.16,12.35-1.74,1.47-.19,3-.32,4.49-.44l2.06-.17c2.5-.23,4.62-.4,6.79-.48l2.33-.11,2.93-.14V253.47l-.47-2.46,4.37-9.77,13-6.53Z" transform="translate(-39.84 -195.04)"/><path class="e8f286ac-f3f6-4e32-8480-90188e5accf3" d="M156.25,242.43l-11.73-5.73-11.67,5.68L128.1,253v22.76h10.82v-10h11.21V277.9L161,279V253Zm-8.57,8.1h-6.31v-3.32a3.16,3.16,0,1,1,6.31,0Z" transform="translate(-39.84 -195.04)"/><rect class="e8f286ac-f3f6-4e32-8480-90188e5accf3" x="66.22" y="58.23" width="20.49" height="22.5"/><polygon class="e8f286ac-f3f6-4e32-8480-90188e5accf3" points="84.25 45.76 92.19 41.8 88.54 41.8 80.96 45.76 84.25 45.76"/><polygon class="e8f286ac-f3f6-4e32-8480-90188e5accf3" points="84.22 41.8 81.47 41.8 73.32 45.76 76.64 45.76 84.22 41.8"/><polygon class="e8f286ac-f3f6-4e32-8480-90188e5accf3" points="92.19 45.76 100.34 41.8 96.67 41.8 88.73 45.76 92.19 45.76"/><polygon class="e8f286ac-f3f6-4e32-8480-90188e5accf3" points="85.93 47.76 83.52 53.8 82.55 56.22 86.83 56.22 87.1 56.22 90.88 47.76 85.93 47.76"/><polygon class="e8f286ac-f3f6-4e32-8480-90188e5accf3" points="78.36 47.76 75.29 55.43 74.97 56.22 79.96 56.22 80.71 54.35 83.34 47.76 78.36 47.76"/><polygon class="e8f286ac-f3f6-4e32-8480-90188e5accf3" points="69.62 47.76 65.84 56.22 71.27 56.22 72.39 56.22 72.49 55.98 75.77 47.76 69.62 47.76"/><path class="e8f286ac-f3f6-4e32-8480-90188e5accf3" d="M91.66,265.05c0,5.89,1.68,7.07,3.77,7.07s3.77-1.18,3.77-7.07-3.77-18.22-3.77-18.22S91.66,259.17,91.66,265.05Z" transform="translate(-39.84 -195.04)"/><rect class="e8f286ac-f3f6-4e32-8480-90188e5accf3" x="94.74" y="269.7" width="1.38" height="6.07" transform="translate(151.01 350.42) rotate(180)"/><path class="e8f286ac-f3f6-4e32-8480-90188e5accf3" d="M76.4,263.33c0,7.32,2.1,8.79,4.69,8.79s4.69-1.47,4.69-8.79-4.69-22.67-4.69-22.67S76.4,256,76.4,263.33Z" transform="translate(-39.84 -195.04)"/><rect class="e8f286ac-f3f6-4e32-8480-90188e5accf3" x="80.4" y="269.7" width="1.38" height="6.07" transform="translate(122.34 350.42) rotate(180)"/><path class="e8f286ac-f3f6-4e32-8480-90188e5accf3" d="M178.25,283.07c-1.9-.63-4.22-1.29-6.91-2l-4.28-1.14-4.79-1.06c-3.34-.79-7-1.44-10.86-2.09-1.93-.37-3.93-.6-6-.91s-4.12-.59-6.26-.79l-1.57-.15-4.92-.49c-2.2-.19-4.43-.3-6.67-.43s-4.51-.25-6.79-.28-4.56-.15-6.85-.11l-6.85.09c-2.28,0-4.54.2-6.79.3s-4.47.27-6.67.47-4.37.33-6.49.61c-4.26.49-8.36,1-12.23,1.72-1.93.34-3.83.57-5.63,1l-5.23,1.1c-1.89.37-3.66.8-5.35,1.24-1.3.33-2.56.67-3.74,1-2.7.66-5,1.45-6.88,2-3.81,1.15-6,2-6,2l6.2-.79c2-.24,4.36-.62,7.1-.94l4.35-.5.38-.05c1.42-.17,2.89-.37,4.44-.5,3.37-.33,7-.73,10.86-1s7.92-.57,12.12-.86c2.1-.15,4.24-.2,6.41-.32s4.35-.21,6.56-.25l6.67-.16,6.72,0c2.24-.05,4.49,0,6.72.06s4.46,0,6.67.15l6.56.22,3,.16,3.42.18c2.11.07,4.16.3,6.19.41s4,.22,5.93.43c3.85.4,7.5.64,10.86,1.05l4.83.52,4.35.54c2.73.36,5.13.6,7.09.91,3.93.56,6.2.81,6.2.81S182.05,284.28,178.25,283.07Z" transform="translate(-39.84 -195.04)"/><path class="b81a8c28-8075-4e0a-a012-1d508cdcdd02" d="M247,267.09A112.31,112.31,0,0,0,206.08,280h8.17A118,118,0,0,1,247,270.84Z" transform="translate(-39.84 -195.04)"/><path class="b81a8c28-8075-4e0a-a012-1d508cdcdd02" d="M222.73,280H247v-5.9A115.83,115.83,0,0,0,222.73,280Z" transform="translate(-39.84 -195.04)"/><path class="b81a8c28-8075-4e0a-a012-1d508cdcdd02" d="M247,263.88v-3.17l-1.36.1-.23,0c-.8.06-1.6.14-2.41.23l-.55.06-2.33.27-.4.05c-1.84.25-3.72.54-5.62.89l-.47.09-2.46.48-.45.1c-1.93.41-3.89.88-5.86,1.41l-.37.11c-.86.23-1.72.48-2.58.74l-.51.15c-2,.62-4.08,1.31-6.13,2.08l-.43.16c-.92.35-1.83.71-2.75,1.08l-.55.23q-3.1,1.29-6.23,2.82l-.74.37c-.86.44-1.73.89-2.6,1.36l-.53.28c-1,.55-2,1.13-3,1.72l-.68.41c-.8.48-1.61,1-2.41,1.49l-.84.54c-1,.65-2,1.31-3,2h8.34A114,114,0,0,1,247,263.88Z" transform="translate(-39.84 -195.04)"/><line class="b81a8c28-8075-4e0a-a012-1d508cdcdd02" x1="198.34" y1="85.29" x2="197.35" y2="85.29"/><polygon class="b402ee8c-5cba-4e55-af60-d3d4d3d12584" points="154.89 40.07 157.74 40.07 156.58 38.62 153.14 38.62 149.63 38.62 148.47 40.07 151.31 40.07 154.89 40.07"/><rect class="b402ee8c-5cba-4e55-af60-d3d4d3d12584" x="148.56" y="50.53" width="9.08" height="9.08"/><path class="e8f286ac-f3f6-4e32-8480-90188e5accf3" d="M194.73,235.12h-6.42l-6.41,8L176,280.33h11.77v-10a5.16,5.16,0,1,1,10.32,0v10h11.77L204,243.15l-6.41-8Zm2.76,19.54H188.4v-9.08h9.09Z" transform="translate(-39.84 -195.04)"/><polygon class="e8f286ac-f3f6-4e32-8480-90188e5accf3" points="156.38 30.99 156.38 31 165.94 38.62 169.38 38.62 159.73 28.32 156.38 30.98 156.38 30.99"/><polygon class="e8f286ac-f3f6-4e32-8480-90188e5accf3" points="155.89 24.22 153.14 21.28 150.34 24.26 153.1 27.72 155.89 24.22"/><polygon class="e8f286ac-f3f6-4e32-8480-90188e5accf3" points="156.58 38.62 153.11 34.27 153.1 34.27 153.09 34.27 149.63 38.62 153.14 38.62 156.58 38.62"/><polygon class="e8f286ac-f3f6-4e32-8480-90188e5accf3" points="149.82 30.99 149.82 30.98 146.52 28.35 136.9 38.62 140.27 38.62 149.82 31 149.82 30.99"/><path class="e8f286ac-f3f6-4e32-8480-90188e5accf3" d="M191.54,226a1.4,1.4,0,0,0,2.39,1h0a1.35,1.35,0,0,0,.41-1,1.38,1.38,0,0,0-.4-1h0a1.43,1.43,0,0,0-1-.41,1.39,1.39,0,0,0-1,.41h0A1.39,1.39,0,0,0,191.54,226Z" transform="translate(-39.84 -195.04)"/><polygon class="e8f286ac-f3f6-4e32-8480-90188e5accf3" points="122.11 55.5 128.59 61.98 151.15 33.68 150.41 32.94 122.11 55.5"/><polygon class="e8f286ac-f3f6-4e32-8480-90188e5accf3" points="128.59 0 122.11 6.48 150.41 29.04 151.15 28.3 128.59 0"/><polygon class="e8f286ac-f3f6-4e32-8480-90188e5accf3" points="184.09 6.48 177.62 0 155.05 28.3 155.79 29.04 184.09 6.48"/><polygon class="e8f286ac-f3f6-4e32-8480-90188e5accf3" points="177.62 61.98 184.09 55.5 155.79 32.94 155.05 33.68 177.62 61.98"/><path class="e8f286ac-f3f6-4e32-8480-90188e5accf3" d="M82.84,84.22H205.37A10.84,10.84,0,0,1,216.2,95.06v2.11a0,0,0,0,1,0,0H72a0,0,0,0,1,0,0V95.06A10.84,10.84,0,0,1,82.84,84.22Z"/><path class="e8f286ac-f3f6-4e32-8480-90188e5accf3" d="M10.84,84.22H133.37A10.84,10.84,0,0,1,144.2,95.06v2.11a0,0,0,0,1,0,0H0a0,0,0,0,1,0,0V95.06A10.84,10.84,0,0,1,10.84,84.22Z"/><path class="f5eeaa4b-07a5-43ae-9d27-a1fad5f55333" d="M56.12,214v-3l1.12-.34c.68-.2,1.22-.38,1.64-.55,0,.13,0,.23,0,.32v1.86a31.83,31.83,0,0,0,.27,3.89,8.3,8.3,0,0,0,.93-1.34,4.32,4.32,0,0,1,1.92.58,2.26,2.26,0,0,1,.89,1.25,8.43,8.43,0,0,1,.22,2.19,8.15,8.15,0,0,1-.25,2.29,4.27,4.27,0,0,1-.89,1.56,3.77,3.77,0,0,1-1.25,1l-1.88-1.32a7.52,7.52,0,0,1-.34,1l-2.76.9c.24-1.22.38-2,.41-2.2s0-1.57,0-4.07c0-.42,0-1,0-1.82S56.12,214.6,56.12,214Zm3.51,2.75A6,6,0,0,1,59,218c0,.25,0,.6,0,1s0,.85,0,1.23a11,11,0,0,0,1.54.67,6.8,6.8,0,0,0-.85-4.21Z" transform="translate(-39.84 -195.04)"/><path class="f5eeaa4b-07a5-43ae-9d27-a1fad5f55333" d="M64.56,211.08l1.66-.51,1.26-.41-.35,7.57-.13,3c.42.36.89.73,1.42,1.1v.07a16.22,16.22,0,0,0-1.7,2.25A2.74,2.74,0,0,1,65,222.89a4.65,4.65,0,0,1-.58-2.5c0-.41,0-1.1,0-2S64.51,215,64.56,211.08Z" transform="translate(-39.84 -195.04)"/><path class="f5eeaa4b-07a5-43ae-9d27-a1fad5f55333" d="M70.05,214.5a2.46,2.46,0,0,1,1.82.92A13.9,13.9,0,0,1,73,219.21c.19.79.36,1.45.51,2a13.15,13.15,0,0,0,.88-3.76,1.65,1.65,0,0,0-.74-1.34q.66-.35,2-1.2a2.19,2.19,0,0,1,1.17,1.79,7.17,7.17,0,0,1-.11,1.16,4.5,4.5,0,0,1-.22.89,5.74,5.74,0,0,1-.64.86c-.35.41-.83.95-1.46,1.6,0,.13-.26.74-.61,1.82a10.19,10.19,0,0,0-2.47.85c-.34-1.69-.62-2.89-.85-3.62s-.42-1.2-.58-1.6a1.78,1.78,0,0,0-.83-.87C69.19,217.47,69.52,216.38,70.05,214.5Z" transform="translate(-39.84 -195.04)"/><path class="f5eeaa4b-07a5-43ae-9d27-a1fad5f55333" d="M84.9,212.57l1.59-2.17.69-.14L84.6,215l-1.52.33A19.53,19.53,0,0,1,84.9,212.57Zm1.49.33,1.54-2.74.63-.11L86.83,215l-1.34.22A7.31,7.31,0,0,1,86.39,212.9Z" transform="translate(-39.84 -195.04)"/><path class="f5eeaa4b-07a5-43ae-9d27-a1fad5f55333" d="M96.84,223.39l-3,.65c0-.21,0-.47,0-.76a23.59,23.59,0,0,0-.22-3.26,10.66,10.66,0,0,1-1.17,1.84c-.63.85-1.1,1.51-1.4,2a10,10,0,0,1-1.43-.63,24.68,24.68,0,0,1-.23-3.48A5.26,5.26,0,0,1,90.67,216a8.68,8.68,0,0,1,1.49-1.53,7.26,7.26,0,0,1,1.66.39c0-1.46.07-2.84.07-4.12,1.64-.37,2.64-.61,3-.7q-.3,4.13-.3,9c0,.79,0,1.57.07,2.32S96.75,222.79,96.84,223.39ZM92,216.75l.09,4.31.08-.1.06-.07c0-.09.1-.19.17-.33l.19-.37,1.31-2.78A6.34,6.34,0,0,0,92,216.75Z" transform="translate(-39.84 -195.04)"/><path class="f5eeaa4b-07a5-43ae-9d27-a1fad5f55333" d="M98.16,216.67l1.91-2,2.29.21a2.21,2.21,0,0,1,1.56.67,1.89,1.89,0,0,1,.48,1.25,5.05,5.05,0,0,1-.07.77c-.06.36-.13.92-.2,1.65a4.53,4.53,0,0,1-2.94,1,3.89,3.89,0,0,1-.52,0c.55.83,1.09,1.25,1.62,1.25a2.2,2.2,0,0,0,1.68-.85H104c-.57,2.13-1.61,3.2-3.14,3.2a3,3,0,0,1-1.73-.4,2.47,2.47,0,0,1-.82-1.16,9,9,0,0,1-.29-2.8l0-1.75Zm2.56.11-.22,2.5c.5,0,1,0,1.59-.07,0-.45,0-.66,0-.64a2,2,0,0,0-.38-1.31A1.34,1.34,0,0,0,100.72,216.78Z" transform="translate(-39.84 -195.04)"/><path class="f5eeaa4b-07a5-43ae-9d27-a1fad5f55333" d="M112.65,216.32l1.39-2.93a13.18,13.18,0,0,1,4.4-2.77,12.29,12.29,0,0,1,3.89-.79,5.06,5.06,0,0,1,2.51.68,4.62,4.62,0,0,1,1.82,1.73,4,4,0,0,1,.6,1.93,5.66,5.66,0,0,1-.66,2.36,7.34,7.34,0,0,1-2.71,2.73,13.65,13.65,0,0,1-5.14,1.92,15.53,15.53,0,0,1,4,4c-.11.48-.51,1.79-1.18,3.93-.43-.47-.88-1-1.36-1.46s-1-1-1.49-1.52-1.38-1.37-2.62-2.58c-1.37,2.34-2.44,3.51-3.23,3.51-.44,0-.93-.35-1.45-1a3.79,3.79,0,0,0-.56-.58q.18-.45.6-1.35c.22-.49.39-.9.53-1.22l2.32,1.44c.46-.64,1-1.56,1.77-2.75s1.37-2.33,2.14-3.75l2.35-4.41-.64,0a8.32,8.32,0,0,0-1.68.19,13.35,13.35,0,0,0-1.81.57A15.84,15.84,0,0,0,112.65,216.32Zm9.86-2.52a74.4,74.4,0,0,0-4.32,6.29c1.82-.24,3.76-1.74,5.81-4.48A3.41,3.41,0,0,0,122.51,213.8Z" transform="translate(-39.84 -195.04)"/><path class="f5eeaa4b-07a5-43ae-9d27-a1fad5f55333" d="M127.46,217.63l.23-1.29a13,13,0,0,0,3.92-1.6v1.81l0,.77v.28c0,.22,0,.53,0,.93,0,.18,0,.32,0,.43l.06,1.8c0,.39.05,1.27.13,2.63-1.17.24-2.18.43-3.05.55q.12-1.29.12-3.84l0-2.58a1.68,1.68,0,0,1-.77.18A3.26,3.26,0,0,1,127.46,217.63Zm2.52-7.56a1.44,1.44,0,0,1,1.1.53,2.18,2.18,0,0,1,0,2.68,1.4,1.4,0,0,1-1.1.55,1.38,1.38,0,0,1-1.1-.55,2,2,0,0,1-.46-1.32,2.07,2.07,0,0,1,.46-1.34A1.37,1.37,0,0,1,130,210.07Z" transform="translate(-39.84 -195.04)"/><path class="f5eeaa4b-07a5-43ae-9d27-a1fad5f55333" d="M134.22,215.45l3.24-.25c-.16,1-.27,1.6-.32,1.93s-.12.77-.19,1.33q-.15,1.32-.24,2.94a27.87,27.87,0,0,1-.25,2.84,6.32,6.32,0,0,1-.51,1.52q-.4.83-1.86,3.12a8.89,8.89,0,0,1-2-.44l-.23-2.15.83-1.73,1,.59c0-.69.07-1.77.08-3.25s.07-2.89.14-3.94A22,22,0,0,1,134.22,215.45Zm1.43-5.25a1.43,1.43,0,0,1,1.11.55,2,2,0,0,1,.46,1.34,2,2,0,0,1-.46,1.33,1.37,1.37,0,0,1-2.22,0,2.19,2.19,0,0,1,0-2.66A1.41,1.41,0,0,1,135.65,210.2Z" transform="translate(-39.84 -195.04)"/><path class="f5eeaa4b-07a5-43ae-9d27-a1fad5f55333" d="M138.09,215.47l1.9-.39c.41-.09.79-.2,1.15-.31.09.72.15,1.32.17,1.79a12.37,12.37,0,0,0,1.22-1,6.91,6.91,0,0,0,.83-.94,4.46,4.46,0,0,1,1.87,1.12,3.51,3.51,0,0,1,.7,2.47,7.3,7.3,0,0,1-2.4,5.4l-1.12-.6-.63-.32c-.51,2.59-.87,4.64-1.07,6.17l-2.36-.25c0-.32.08-1,.16-2.07s.12-2,.15-2.8,0-1.49,0-2A22,22,0,0,0,138.09,215.47Zm3.22,2.61a8.25,8.25,0,0,1,.09,1.19v1.29a10.86,10.86,0,0,0,1.58.58,7.86,7.86,0,0,0,.07-1.06,5.22,5.22,0,0,0-.68-3.2A15.81,15.81,0,0,1,141.31,218.08Z" transform="translate(-39.84 -195.04)"/><path class="f5eeaa4b-07a5-43ae-9d27-a1fad5f55333" d="M146.76,215.05l1.73-4.94,1.34-.18A6.38,6.38,0,0,1,149,212L147.39,215Zm1.4-.23,2.57-4.71,1.55-.36a13.64,13.64,0,0,1-1,1.57l-1.25,1.73-1.26,1.64Z" transform="translate(-39.84 -195.04)"/><path class="afb8be9d-4ec9-42b0-861f-bda867d9fab3" d="M43.79,304.81H42.08l-1.76-5.74h-.41v-1.79h3v1.79H42.4l.82,3.18.86-3.18h-.45v-1.79h2.22v1.79h-.41Z" transform="translate(-39.84 -195.04)"/><path class="afb8be9d-4ec9-42b0-861f-bda867d9fab3" d="M51.53,304.75H46.28V303h.43v-3.89h-.44v-1.79h5.26v2.39H50.09v-.6H48.84v1.15h1.08v1.52H48.84V303h1.25v-.6h1.44Z" transform="translate(-39.84 -195.04)"/><path class="afb8be9d-4ec9-42b0-861f-bda867d9fab3" d="M55.33,304.75h-3V303h.45v-3.89h-.45v-1.79h3l.75,0,.59.05.45.1a1.63,1.63,0,0,1,.94.72,2.67,2.67,0,0,1,.14,2.4,1.52,1.52,0,0,1-.58.68l.76,1.71h.39v1.79h-2L55.6,301.7h-.68V303h.41Zm-.41-5.83v1.42h.24a3,3,0,0,0,.63,0,.44.44,0,0,0,.3-.21.94.94,0,0,0,0-.92.46.46,0,0,0-.31-.21,3.42,3.42,0,0,0-.67,0Z" transform="translate(-39.84 -195.04)"/><path class="afb8be9d-4ec9-42b0-861f-bda867d9fab3" d="M64.52,304.75H59.27V303h.43v-3.89h-.43v-1.79h5.25v2.39H63.08v-.6H61.83v1.15h1.09v1.52H61.83V303h1.25v-.6h1.44Z" transform="translate(-39.84 -195.04)"/><path class="afb8be9d-4ec9-42b0-861f-bda867d9fab3" d="M67.5,304.75H65.24V303h.49v-3.89h-.49v-1.79h2.61l2,3.9v-2.11H69.4v-1.79h2.22v1.79h-.48v5.78H69.33L67,300.33V303h.48Z" transform="translate(-39.84 -195.04)"/><path class="afb8be9d-4ec9-42b0-861f-bda867d9fab3" d="M75.32,304.75H72.18V303h.51v-3.89h-.51v-1.79h3.14v1.79h-.51V303h.51Z" transform="translate(-39.84 -195.04)"/><path class="afb8be9d-4ec9-42b0-861f-bda867d9fab3" d="M80.13,302.18h-.56v-1.42H82a9.84,9.84,0,0,1-.13,1.82,3.48,3.48,0,0,1-.51,1.17,2.42,2.42,0,0,1-.93.85,2.64,2.64,0,0,1-1.17.27,3.42,3.42,0,0,1-1.69-.42,2.68,2.68,0,0,1-1.18-1.35A5,5,0,0,1,76,301a4.36,4.36,0,0,1,.85-2.81,2.5,2.5,0,0,1,2.05-1.07,2,2,0,0,1,1.6.67v-.52h1.32v2.61H80.5a1.73,1.73,0,0,0-.46-.73.91.91,0,0,0-.65-.25.82.82,0,0,0-.76.46,4.09,4.09,0,0,0-.25,1.7,3.68,3.68,0,0,0,.26,1.67.81.81,0,0,0,.75.45C79.88,303.19,80.13,302.85,80.13,302.18Z" transform="translate(-39.84 -195.04)"/><path class="afb8be9d-4ec9-42b0-861f-bda867d9fab3" d="M85.86,304.75H82.73V303h.5v-3.89h-.5v-1.79h3.13v1.79h-.5V303h.5Z" transform="translate(-39.84 -195.04)"/><path class="afb8be9d-4ec9-42b0-861f-bda867d9fab3" d="M88.67,304.75H86.42V303h.48v-3.89h-.48v-1.79H89l2,3.9v-2.11h-.44v-1.79h2.21v1.79h-.47v5.78H90.51l-2.32-4.52V303h.48Z" transform="translate(-39.84 -195.04)"/><path class="afb8be9d-4ec9-42b0-861f-bda867d9fab3" d="M97.59,302.18H97v-1.42h2.46a9,9,0,0,1-.13,1.82,3.48,3.48,0,0,1-.51,1.17,2.42,2.42,0,0,1-.93.85,2.58,2.58,0,0,1-1.17.27,3.44,3.44,0,0,1-1.69-.42,2.68,2.68,0,0,1-1.18-1.35,5,5,0,0,1-.42-2.09,4.42,4.42,0,0,1,.85-2.81,2.51,2.51,0,0,1,2.06-1.07,2,2,0,0,1,1.59.67v-.52h1.32v2.61H98a1.83,1.83,0,0,0-.45-.73,1,1,0,0,0-.65-.25.82.82,0,0,0-.77.46,4.13,4.13,0,0,0-.24,1.7,3.72,3.72,0,0,0,.25,1.67.81.81,0,0,0,.75.45C97.34,303.19,97.59,302.85,97.59,302.18Z" transform="translate(-39.84 -195.04)"/><path class="afb8be9d-4ec9-42b0-861f-bda867d9fab3" d="M105.07,304.81h-1.72l-1.75-5.74h-.41v-1.79h3v1.79h-.47l.82,3.18.86-3.18h-.45v-1.79h2.22v1.79h-.41Z" transform="translate(-39.84 -195.04)"/><path class="afb8be9d-4ec9-42b0-861f-bda867d9fab3" d="M109.1,304.75h-2.18V303h.42l1-3.89h-.44v-1.79h3.95v1.79h-.44l1,3.89h.41v1.79H110v-1.64h.49l-.21-.94h-1.41l-.24.94h.45Zm.52-5.58-.52,2.07h1Z" transform="translate(-39.84 -195.04)"/><path class="afb8be9d-4ec9-42b0-861f-bda867d9fab3" d="M115.51,304.75h-2.26V303h.48v-3.89h-.48v-1.79h2.6l2,3.9v-2.11h-.44v-1.79h2.22v1.79h-.48v5.78h-1.81L115,300.33V303h.49Z" transform="translate(-39.84 -195.04)"/><path class="afb8be9d-4ec9-42b0-861f-bda867d9fab3" d="M127.54,304.75h-5.25V303h.43v-3.89h-.44v-1.79h5.26v2.39H126.1v-.6h-1.25v1.15h1.08v1.52h-1.08V303h1.25v-.6h1.44Z" transform="translate(-39.84 -195.04)"/><path class="afb8be9d-4ec9-42b0-861f-bda867d9fab3" d="M131.42,304.75h-3.14V303h.51v-3.89h-.51v-1.79h3.14v1.79h-.5V303h.5Z" transform="translate(-39.84 -195.04)"/><path class="afb8be9d-4ec9-42b0-861f-bda867d9fab3" d="M136.23,302.18h-.56v-1.42h2.46a9,9,0,0,1-.13,1.82,3.48,3.48,0,0,1-.51,1.17,2.42,2.42,0,0,1-.93.85,2.58,2.58,0,0,1-1.17.27,3.44,3.44,0,0,1-1.69-.42,2.68,2.68,0,0,1-1.18-1.35,5,5,0,0,1-.42-2.09,4.36,4.36,0,0,1,.85-2.81,2.5,2.5,0,0,1,2.05-1.07,2,2,0,0,1,1.6.67v-.52h1.32v2.61H136.6a1.83,1.83,0,0,0-.45-.73,1,1,0,0,0-.65-.25.82.82,0,0,0-.77.46,4.13,4.13,0,0,0-.24,1.7,3.72,3.72,0,0,0,.25,1.67.81.81,0,0,0,.75.45C136,303.19,136.23,302.85,136.23,302.18Z" transform="translate(-39.84 -195.04)"/><path class="afb8be9d-4ec9-42b0-861f-bda867d9fab3" d="M144.16,304.75h-5.25V303h.43v-3.89h-.44v-1.79h5.26v2.39h-1.44v-.6h-1.25v1.15h1.08v1.52h-1.08V303h1.25v-.6h1.44Z" transform="translate(-39.84 -195.04)"/><path class="afb8be9d-4ec9-42b0-861f-bda867d9fab3" d="M147.14,304.75h-2.26V303h.49v-3.89h-.49v-1.79h2.61l2,3.9v-2.11H149v-1.79h2.22v1.79h-.48v5.78H149l-2.31-4.52V303h.48Z" transform="translate(-39.84 -195.04)"/><path class="afb8be9d-4ec9-42b0-861f-bda867d9fab3" d="M153.68,304.75H151.5V303h.42l1-3.89h-.44v-1.79h4v1.79H156l1,3.89h.41v1.79h-2.87v-1.64h.48l-.21-.94h-1.41l-.24.94h.45Zm.52-5.58-.52,2.07h1Z" transform="translate(-39.84 -195.04)"/><path class="afb8be9d-4ec9-42b0-861f-bda867d9fab3" d="M160.91,304.75h-3V303h.45v-3.89h-.45v-1.79h3l.75,0,.59.05.45.1a1.66,1.66,0,0,1,.94.72,2.67,2.67,0,0,1,.14,2.4,1.52,1.52,0,0,1-.58.68L164,303h.39v1.79h-2l-1.2-3.05h-.67V303h.41Zm-.41-5.83v1.42h.23a3.13,3.13,0,0,0,.64,0,.49.49,0,0,0,.3-.21.94.94,0,0,0,0-.92.48.48,0,0,0-.32-.21,3.3,3.3,0,0,0-.66,0Z" transform="translate(-39.84 -195.04)"/><path class="afb8be9d-4ec9-42b0-861f-bda867d9fab3" d="M170.1,304.75h-5.25V303h.43v-3.89h-.44v-1.79h5.26v2.39h-1.45v-.6H167.4v1.15h1.09v1.52H167.4V303h1.25v-.6h1.45Z" transform="translate(-39.84 -195.04)"/><path class="afb8be9d-4ec9-42b0-861f-bda867d9fab3" d="M173.08,304.75h-2.26V303h.48v-3.89h-.48v-1.79h2.61l2,3.9v-2.11H175v-1.79h2.22v1.79h-.48v5.78h-1.81l-2.32-4.52V303h.49Z" transform="translate(-39.84 -195.04)"/><path class="afb8be9d-4ec9-42b0-861f-bda867d9fab3" d="M182.84,304.75h-3V303h.45v-3.89h-.45v-1.79h3l.75,0,.59.05.45.1a1.66,1.66,0,0,1,.94.72,2.67,2.67,0,0,1,.14,2.4,1.52,1.52,0,0,1-.58.68l.76,1.71h.39v1.79h-2l-1.2-3.05h-.67V303h.41Zm-.41-5.83v1.42h.23a3,3,0,0,0,.64,0,.44.44,0,0,0,.3-.21.94.94,0,0,0,0-.92.46.46,0,0,0-.31-.21,3.49,3.49,0,0,0-.67,0Z" transform="translate(-39.84 -195.04)"/><path class="afb8be9d-4ec9-42b0-861f-bda867d9fab3" d="M192,304.75h-5.25V303h.43v-3.89h-.44v-1.79H192v2.39h-1.45v-.6h-1.24v1.15h1.08v1.52h-1.08V303h1.24v-.6H192Z" transform="translate(-39.84 -195.04)"/><path class="afb8be9d-4ec9-42b0-861f-bda867d9fab3" d="M194.09,304.75h-1.24v-2.4h1.24c.15.66.43,1,.84,1s.44-.16.44-.48a.6.6,0,0,0-.15-.42,4.38,4.38,0,0,0-.7-.51,5.85,5.85,0,0,1-1-.71,2.11,2.11,0,0,1-.51-.76,2.61,2.61,0,0,1-.21-1.06,2.43,2.43,0,0,1,.5-1.62,1.55,1.55,0,0,1,1.22-.59,1.58,1.58,0,0,1,1.22.56v-.46H197v2.13h-1.23c-.15-.59-.42-.88-.8-.88s-.4.15-.4.46a.48.48,0,0,0,.11.34,6,6,0,0,0,.72.52,10.67,10.67,0,0,1,1.08.8,1.53,1.53,0,0,1,.28.35,2.25,2.25,0,0,1,.24.46,2.86,2.86,0,0,1,.22,1.14,2.52,2.52,0,0,1-.51,1.59,1.6,1.6,0,0,1-1.3.66,1.85,1.85,0,0,1-1.32-.59Z" transform="translate(-39.84 -195.04)"/><path class="afb8be9d-4ec9-42b0-861f-bda867d9fab3" d="M198,301a4.85,4.85,0,0,1,.34-1.81,3.54,3.54,0,0,1,1-1.47,2.45,2.45,0,0,1,.51-.33,2.25,2.25,0,0,1,.57-.19,2.81,2.81,0,0,1,.65-.07,2.62,2.62,0,0,1,2.29,1.17,4.59,4.59,0,0,1,.61,1.26,4.82,4.82,0,0,1,.21,1.44,4.48,4.48,0,0,1-.84,2.71,2.67,2.67,0,0,1-2.27,1.16,2.72,2.72,0,0,1-2.24-1.09A4.35,4.35,0,0,1,198,301Zm2.39,0a5.13,5.13,0,0,0,.18,1.68.57.57,0,0,0,.53.44.58.58,0,0,0,.54-.43,5.12,5.12,0,0,0,.18-1.69,5.21,5.21,0,0,0-.18-1.68.57.57,0,0,0-.54-.44.58.58,0,0,0-.53.42A5.19,5.19,0,0,0,200.34,301Z" transform="translate(-39.84 -195.04)"/><path class="afb8be9d-4ec9-42b0-861f-bda867d9fab3" d="M207.9,304.75h-3V303h.45v-3.89h-.45v-1.79h3l.75,0,.59.05.45.1a1.66,1.66,0,0,1,.94.72,2.67,2.67,0,0,1,.14,2.4,1.52,1.52,0,0,1-.58.68L211,303h.39v1.79h-2l-1.2-3.05h-.67V303h.41Zm-.41-5.83v1.42h.23a3.07,3.07,0,0,0,.64,0,.44.44,0,0,0,.3-.21.94.94,0,0,0,0-.92.46.46,0,0,0-.32-.21,3.3,3.3,0,0,0-.66,0Z" transform="translate(-39.84 -195.04)"/><path class="afb8be9d-4ec9-42b0-861f-bda867d9fab3" d="M215.86,304.75h-3.09V303h.47v-3.89h-.63v1.36h-1v-3.15H217v3.15h-1v-1.36h-.63V303h.49Z" transform="translate(-39.84 -195.04)"/><path class="afb8be9d-4ec9-42b0-861f-bda867d9fab3" d="M222.34,304.75h-2.56V303h.44v-3.89h-.44v-1.79h2.64a5.93,5.93,0,0,1,1.47.15,2.59,2.59,0,0,1,1.08.62,3.18,3.18,0,0,1,.79,1.28,4.91,4.91,0,0,1,.22.82,5.57,5.57,0,0,1,.07.93,5,5,0,0,1-.3,1.77,3.09,3.09,0,0,1-.77,1.22,2.15,2.15,0,0,1-1,.55A7.49,7.49,0,0,1,222.34,304.75Zm0-5.68V303h.2a.94.94,0,0,0,1-.54,3.61,3.61,0,0,0,.22-1.37,5.31,5.31,0,0,0-.09-1,1.5,1.5,0,0,0-.35-.75,1.2,1.2,0,0,0-.88-.26Z" transform="translate(-39.84 -195.04)"/><path class="afb8be9d-4ec9-42b0-861f-bda867d9fab3" d="M232.07,304.75h-5.25V303h.43v-3.89h-.43v-1.79h5.25v2.39h-1.44v-.6h-1.25v1.15h1.09v1.52h-1.09V303h1.25v-.6h1.44Z" transform="translate(-39.84 -195.04)"/><path class="afb8be9d-4ec9-42b0-861f-bda867d9fab3" d="M237.9,304.75h-3V303h.45v-3.89h-.45v-1.79h3l.75,0,.59.05.45.1a1.69,1.69,0,0,1,.94.72,2.46,2.46,0,0,1,.36,1.34,2.61,2.61,0,0,1-.22,1.06,1.52,1.52,0,0,1-.58.68L241,303h.39v1.79h-2l-1.2-3.05h-.68V303h.42Zm-.42-5.83v1.42h.24a3,3,0,0,0,.63,0,.49.49,0,0,0,.31-.21.94.94,0,0,0,0-.92.48.48,0,0,0-.32-.21,3.3,3.3,0,0,0-.66,0Z" transform="translate(-39.84 -195.04)"/><path class="afb8be9d-4ec9-42b0-861f-bda867d9fab3" d="M244.89,304.75h-3.13V303h.5v-3.89h-.5v-1.79h3.13v1.79h-.5V303h.5Z" transform="translate(-39.84 -195.04)"/><path class="afb8be9d-4ec9-42b0-861f-bda867d9fab3" d="M245.34,307v-1.83a1.09,1.09,0,0,0,.24,0,.31.31,0,0,0,.32-.24,5.26,5.26,0,0,0,.07-1.15v-4.71h-.51v-1.79h3.11v1.79h-.47v4.38c0,.81,0,1.38,0,1.71a2.58,2.58,0,0,1-.28,1,1.7,1.7,0,0,1-.6.69,1.93,1.93,0,0,1-1,.23A4,4,0,0,1,245.34,307Z" transform="translate(-39.84 -195.04)"/><path class="afb8be9d-4ec9-42b0-861f-bda867d9fab3" d="M252.38,304.75h-3.21V303h.53v-3.89h-.53v-1.79h3.37a3.66,3.66,0,0,1,1.7.3,2,2,0,0,1,.79.85,2.71,2.71,0,0,1,.25,1.18,2.59,2.59,0,0,1-.3,1.31,1.75,1.75,0,0,1-.79.76,3.62,3.62,0,0,1-1.5.23h-.86v1h.55Zm-.55-5.83v1.4h.41a1.19,1.19,0,0,0,.64-.14.65.65,0,0,0,.19-.54.88.88,0,0,0-.11-.45.45.45,0,0,0-.26-.23,2.35,2.35,0,0,0-.54,0Z" transform="translate(-39.84 -195.04)"/><path class="b6de0418-7239-4539-ba0e-b0440db86921" d="M74.31,230.62h-.49v-4.29h.53v1.53a1,1,0,0,1,.85-.42,1.25,1.25,0,0,1,.54.12,1,1,0,0,1,.42.32,1.53,1.53,0,0,1,.26.51,1.85,1.85,0,0,1,.1.63,1.76,1.76,0,0,1-.4,1.24,1.23,1.23,0,0,1-1,.43,1,1,0,0,1-.86-.46Zm0-1.58a1.49,1.49,0,0,0,.16.81.76.76,0,0,0,.67.41.77.77,0,0,0,.6-.3,1.42,1.42,0,0,0,.25-.9,1.37,1.37,0,0,0-.24-.89.72.72,0,0,0-.59-.29.77.77,0,0,0-.6.3A1.35,1.35,0,0,0,74.3,229Z" transform="translate(-39.84 -195.04)"/><path class="b6de0418-7239-4539-ba0e-b0440db86921" d="M77.15,230.62v-4.29h.52v4.29Z" transform="translate(-39.84 -195.04)"/><path class="b6de0418-7239-4539-ba0e-b0440db86921" d="M79.36,230.62l-1.19-3.11h.56l.67,1.87c.07.2.14.41.2.62,0-.16.11-.36.19-.59l.69-1.9H81l-1.18,3.11Z" transform="translate(-39.84 -195.04)"/><path class="b6de0418-7239-4539-ba0e-b0440db86921" d="M83.51,230.62v-.39a1,1,0,0,1-.87.46,1.16,1.16,0,0,1-.68-.2,1.44,1.44,0,0,1-.49-.57,2.25,2.25,0,0,1,0-1.69,1.25,1.25,0,0,1,.46-.59,1.3,1.3,0,0,1,.7-.2,1.06,1.06,0,0,1,.5.12,1.19,1.19,0,0,1,.36.31v-1.54H84v4.29Zm-1.67-1.55a1.31,1.31,0,0,0,.26.89.73.73,0,0,0,.59.3.74.74,0,0,0,.59-.28,1.33,1.33,0,0,0,.24-.87,1.42,1.42,0,0,0-.25-.93.74.74,0,0,0-.6-.3.71.71,0,0,0-.59.29A1.38,1.38,0,0,0,81.84,229.07Z" transform="translate(-39.84 -195.04)"/><path class="b6de0418-7239-4539-ba0e-b0440db86921" d="M87,229.62l.54.07a1.31,1.31,0,0,1-.47.74,1.42,1.42,0,0,1-.89.26,1.44,1.44,0,0,1-1.09-.42,1.67,1.67,0,0,1-.4-1.18,1.69,1.69,0,0,1,.41-1.21,1.37,1.37,0,0,1,1-.44,1.33,1.33,0,0,1,1,.43,1.69,1.69,0,0,1,.39,1.19v.14H85.2a1.18,1.18,0,0,0,.29.79.86.86,0,0,0,.65.27.79.79,0,0,0,.49-.15A1,1,0,0,0,87,229.62Zm-1.73-.85H87a1,1,0,0,0-.19-.59.83.83,0,0,0-.66-.3.85.85,0,0,0-.61.24A1,1,0,0,0,85.23,228.77Z" transform="translate(-39.84 -195.04)"/><path class="b6de0418-7239-4539-ba0e-b0440db86921" d="M88.16,230.62v-3.11h.47V228a1.41,1.41,0,0,1,.34-.43.6.6,0,0,1,.34-.11,1,1,0,0,1,.54.17l-.18.49a.72.72,0,0,0-.39-.11.5.5,0,0,0-.31.1.53.53,0,0,0-.19.29,2,2,0,0,0-.09.61v1.63Z" transform="translate(-39.84 -195.04)"/><path class="b6de0418-7239-4539-ba0e-b0440db86921" d="M90.17,226.93v-.6h.52v.6Zm0,3.69v-3.11h.52v3.11Z" transform="translate(-39.84 -195.04)"/><path class="b6de0418-7239-4539-ba0e-b0440db86921" d="M90.83,231.83l.1-.45a.85.85,0,0,0,.24,0,.3.3,0,0,0,.25-.1,1.18,1.18,0,0,0,.07-.54v-3.27H92v3.28a1.52,1.52,0,0,1-.15.8.68.68,0,0,1-.63.3A1.4,1.4,0,0,1,90.83,231.83Zm.66-4.89v-.61H92v.61Z" transform="translate(-39.84 -195.04)"/><path class="b6de0418-7239-4539-ba0e-b0440db86921" d="M92.83,231.82v-4.31h.48v.41a1.17,1.17,0,0,1,.38-.36,1.08,1.08,0,0,1,.52-.12,1.24,1.24,0,0,1,.71.21,1.28,1.28,0,0,1,.46.58,2.26,2.26,0,0,1,0,1.67,1.26,1.26,0,0,1-.5.59,1.23,1.23,0,0,1-.69.2.93.93,0,0,1-.47-.11,1,1,0,0,1-.34-.28v1.52Zm.48-2.74a1.35,1.35,0,0,0,.24.89.75.75,0,0,0,.59.29.77.77,0,0,0,.6-.3,1.79,1.79,0,0,0,0-1.81.75.75,0,0,0-.59-.3.76.76,0,0,0-.59.32A1.35,1.35,0,0,0,93.31,229.08Z" transform="translate(-39.84 -195.04)"/><path class="b6de0418-7239-4539-ba0e-b0440db86921" d="M96.32,230.62V230h.6v.6Z" transform="translate(-39.84 -195.04)"/><path class="b6de0418-7239-4539-ba0e-b0440db86921" d="M97.83,230.62v-3.11h.48V228a1.12,1.12,0,0,1,1-.51,1.46,1.46,0,0,1,.52.1.89.89,0,0,1,.35.27,1,1,0,0,1,.16.39,2.89,2.89,0,0,1,0,.51v1.91h-.53v-1.89a1.48,1.48,0,0,0-.06-.48.53.53,0,0,0-.21-.26.75.75,0,0,0-.37-.09.84.84,0,0,0-.58.21,1,1,0,0,0-.25.81v1.7Z" transform="translate(-39.84 -195.04)"/><path class="b6de0418-7239-4539-ba0e-b0440db86921" d="M101.16,230.62v-4.29h.53v4.29Z" transform="translate(-39.84 -195.04)"/><path class="e8f286ac-f3f6-4e32-8480-90188e5accf3" d="M235.74,252.24c0,5.88-1.69,7.06-3.77,7.06s-3.77-1.18-3.77-7.06S232,234,232,234,235.74,246.35,235.74,252.24Z" transform="translate(-39.84 -195.04)"/><rect class="e8f286ac-f3f6-4e32-8480-90188e5accf3" x="191.44" y="61.84" width="1.38" height="6.07"/><path class="e8f286ac-f3f6-4e32-8480-90188e5accf3" d="M251,247.83c0,7.32-2.1,8.79-4.69,8.79s-4.69-1.47-4.69-8.79,4.69-22.67,4.69-22.67S251,240.51,251,247.83Z" transform="translate(-39.84 -195.04)"/><rect class="e8f286ac-f3f6-4e32-8480-90188e5accf3" x="205.78" y="59.16" width="1.38" height="6.07"/></svg>