<svg id="b632d0cf-000e-45f3-be91-b1e56e81aa0f" data-name="Layer 1" xmlns="http://www.w3.org/2000/svg" viewBox="0 0 8.41 12.8"><title>roboto_mono-favicon</title><path d="M6.15,8.68V13.9H4.53V1.1H8.29A6.09,6.09,0,0,1,10,1.36a3.9,3.9,0,0,1,1.39.71,3.34,3.34,0,0,1,.93,1.19,4,4,0,0,1,.34,1.68A3.35,3.35,0,0,1,12,7a3.34,3.34,0,0,1-.75.75,5.45,5.45,0,0,1-1,.56l2.71,5.46v.11H11.22L8.71,8.68ZM8.33,7.34a3.18,3.18,0,0,0,1-.17,2.81,2.81,0,0,0,.85-.47A2.33,2.33,0,0,0,10.78,6a2.4,2.4,0,0,0,.21-1,2.56,2.56,0,0,0-.2-1.07,2.11,2.11,0,0,0-.56-.78,2.47,2.47,0,0,0-.86-.47,3.71,3.71,0,0,0-1.08-.16H6.15v4.9Z" transform="translate(-4.53 -1.1)"/></svg>