<svg xmlns="http://www.w3.org/2000/svg" xmlns:svg="http://www.w3.org/2000/svg" xmlns:xlink="http://www.w3.org/1999/xlink" id="TUX" x="0" y="0" version="1.1" viewBox="0 0 712 860" xml:space="preserve" style="enable-background:new 0 0 712 860"><style type="text/css">.st0{fill:none;stroke:#000;stroke-miterlimit:10}</style><switch><g><g><path d="M514.1,859.3c-26.7,0-49.6-14.3-61.9-39l-0.1-0.1c-1.8-3.4-3.1-7-4.1-10.9c-19,1-36.9-1.6-52.8-3.9 c-14.1-2-27.4-4-39.1-3c-19.6,1.1-35.1,4.1-48.8,6.7c-11.8,2.3-22.1,4.2-31.9,4.3c-8,17.3-23.4,29.3-43.6,33.9 c-27.1,6.2-60.4,0.1-93.6-17.2l0,0l-0.4-0.2c-21.1-11.2-46.7-14.1-69.2-16.7c-10.7-1.2-20.9-2.4-30.1-4.3 c-18-3.8-28.5-10.2-34-20.9c-6.3-12.3-5.1-29.3,3.7-53.5c2.6-8.2,0.8-20.4-1.2-33.3l-0.2-1.3c-1.1-7.1-2-13.4-2-19.9 c0-8.2,1.5-15.1,4.7-21l0.2-0.3c7.5-14.2,19.9-20.3,31.1-24.3c1.7-0.6,3.3-1.2,4.9-1.7c9.4-3.2,17.4-6,23.5-12 c3.6-3.9,7.1-8.6,10.8-13.7c4-5.5,8.2-11.2,13-16.4c1.3-1.4,2.5-2.6,3.8-3.7c-4-26.6-0.5-56.6,10.4-89.3 c22.2-66.7,70.6-130.2,97.4-162.2c27.7-39.3,34.9-70.5,37.5-108.1c0.4-8.7-0.4-20.2-1.3-33.5c-4.5-68.2-12-182.5,115.2-192.7 c5.9-0.5,11.8-0.7,17.3-0.7c36.6,0.1,65.6,10.7,86.2,31.6c43.4,44.1,42.2,125.5,41.5,179.4c0,3.3-0.1,6.4-0.1,9.5 c-0.5,49.3,26,82.8,54.1,118.2l1.7,2.1c37.5,44.3,63.1,85.2,78,124.8c17.8,47.1,20,91.6,6.4,132.4c2.2,0.9,4.4,1.9,6.5,3.2 c2.4,1.4,4.7,3.1,6.8,4.9l0.1,0.1c11.4,9.7,14.8,24.6,17.8,37.8l0.1,0.2c3.1,13.3,6,25.9,11.9,32.6l0.1,0.1 c18.6,20.6,26.5,36,25.7,49.7c-0.7,11.9-8.2,21.7-23.6,31c-7.4,4.5-15.8,8.6-24.8,12.9c-20.7,10.1-44.1,21.5-60,40.5l0,0 l-0.3,0.4c0,0.1-0.1,0.1-0.1,0.2l-0.2,0.2l0,0c-23.2,27.4-52.6,44.4-80.9,46.6C518.2,859.2,516.1,859.3,514.1,859.3z M448.8,808.2l0.1,0.4c1,4,2.3,7.7,4.1,11.1l0.1,0.1c13.1,26.2,38.1,40.5,67,38.2c28-2.2,57.2-19,80.2-46.2l0.7-0.8 c16-19.2,39.6-30.7,60.3-40.8c8.9-4.3,17.3-8.4,24.7-12.9c15.1-9.1,22.5-18.7,23.1-30.2c0.8-13.5-7.1-28.6-25.6-49.1l-0.1-0.2 c-6-6.9-8.9-19.6-12-32.9l-0.1-0.2c-3-13-6.4-27.8-17.5-37.3l-0.1-0.1c-2.1-1.8-4.3-3.4-6.6-4.8c-2.2-1.3-4.5-2.4-6.8-3.3 l-0.5-0.2l0.2-0.5c13.7-40.6,11.6-85.1-6.2-132.2c-15-39.5-40.4-80.3-77.9-124.5l-1.7-2.1c-28.2-35.6-54.9-69.2-54.3-118.8 c0-3.1,0.1-6.2,0.1-9.5c0.8-53.7,1.9-134.9-41.2-178.7c-20.4-20.7-49.2-31.3-85.5-31.3c-5.5,0-11.3,0.2-17.2,0.7 C229.9,12.4,237.3,126,241.8,193.9c0.9,13.3,1.6,24.9,1.3,33.6c-2.7,37.7-9.9,69.1-37.8,108.6c-26.8,31.9-75.1,95.4-97.3,161.9 c-10.9,32.6-14.3,62.6-10.3,89.1l0,0.3l-0.2,0.2c-1.3,1.1-2.5,2.4-3.9,3.8c-4.8,5.1-8.9,10.8-12.9,16.3 c-3.7,5.1-7.2,9.9-10.9,13.8c-6.2,6.2-14.4,9-23.8,12.3c-1.6,0.6-3.2,1.1-4.9,1.7c-11,4-23.3,9.9-30.6,23.9v0.4l-0.2,0 c-3,5.7-4.5,12.4-4.5,20.4c0,6.4,0.9,12.7,2,19.7l0.2,1.3c2,13,3.9,25.3,1.2,33.7c-8.8,24-10,40.7-3.8,52.8 c5.3,10.4,15.6,16.6,33.3,20.3c9.2,1.9,19.3,3.1,30,4.3c22.5,2.6,47.9,5.4,69.1,16.5l0.9,0.5c33,17.2,66,23.3,92.9,17.1 c20-4.6,35.3-16.5,43.1-33.6l0.1-0.3l0.3,0c9.8,0,20.1-2,32-4.3c13.7-2.6,29.3-5.6,49-6.7c11.8-1,25.2,1,39.3,3 c15.9,2.3,33.9,4.9,53,3.9L448.8,808.2z" class="st0"/><path d="M421.5,214.9l-0.4-0.2c-1-0.5-2.1-1-3.2-1.4c-3.5-1.5-6.8-2.8-10.2-4.1c-2.4-0.9-4.3-1.6-6.3-2.2l-2.2-0.8 l0.5-0.6c0.6-0.7,1.3-1.4,2.1-2.2c1.6-1.6,3.5-3.4,4.3-5.5c1.9-4.7,2.9-9.2,3.1-14.7c0-0.1,0-0.2,0-0.4c0-0.1,0-0.2,0-0.3 c0.1-5.1-0.6-9.7-2.1-14.3c-1.6-4.8-3.6-8.2-6.5-11.1c-2.9-2.8-5.7-4.1-9.2-4.2c-0.2,0-0.3,0-0.5,0c-3.3,0-6,1.1-9,3.6 c-3.1,2.6-5.4,5.9-7.3,10.6c-1.9,4.7-2.9,9.2-3.1,14.8c0,0.2,0,0.4,0,0.6c-0.1,3,0.1,5.8,0.6,8.5l0.2,1l-0.9-0.4 c-7.3-3.6-16.7-6.2-21.7-7.3l-0.3-0.1l0-0.3c-0.4-2.6-0.6-5.3-0.6-8.2v-0.8c-0.1-10.2,1.6-19,5.5-27.7 c3.9-8.9,8.7-15.2,15.6-20.4c6.9-5.2,13.5-7.6,21.5-7.7h0.4c7.7,0,14.5,2.3,21.3,7.2c6.9,5,12,11.4,15.9,20.1 c4,8.6,5.8,16.9,6,26.8c0,0.3,0,0.4,0.1,0.6l0,0.1v0.7c0,9.8-1.8,18.4-5.5,27c-2.2,5.1-4.8,9.3-7.8,13L421.5,214.9z M401,205.8 l0.8,0.3c1.9,0.7,3.9,1.3,6.3,2.2c3.4,1.3,6.8,2.6,10.2,4.1c1,0.4,1.9,0.8,2.8,1.2c2.9-3.5,5.3-7.6,7.4-12.4 c3.7-8.5,5.4-17,5.4-26.6v-0.6c-0.1-0.3-0.1-0.5-0.1-0.8c-0.2-9.8-2-17.9-5.9-26.4c-4-8.7-8.8-14.7-15.6-19.7 c-6.7-4.9-13.1-7.1-20.7-7.1h-0.4c-7.8,0.1-14.2,2.4-20.9,7.4c-6.7,5.1-11.4,11.3-15.2,20c-3.8,8.5-5.5,17.2-5.4,27.2v0.8 c0.1,2.7,0.2,5.3,0.6,7.8c4.9,1.2,13.6,3.5,20.7,6.9c-0.4-2.5-0.5-5-0.5-7.7c0-0.2,0-0.4,0-0.7c0.2-5.6,1.2-10.3,3.1-15.1 c2-4.8,4.4-8.3,7.6-11c3.1-2.6,6.2-3.8,9.6-3.8c0.2,0,0.4,0,0.5,0c3.8,0.1,6.8,1.5,9.9,4.5c3,3,5.1,6.5,6.8,11.5 c1.6,4.7,2.3,9.4,2.2,14.6c0,0.2,0,0.3,0,0.4c0,0.1,0,0.1,0,0.2c-0.2,5.6-1.2,10.3-3.1,15.1c-0.9,2.2-2.9,4.1-4.6,5.8 C402,204.8,401.5,205.3,401,205.8z" class="st0"/><path d="M272.5,215.9l-0.3-0.3c-4-3.8-7.2-8.5-10-14.9c-3.3-7.4-5-14.9-5.5-23.6l0-0.1c-0.5-8.8,0.4-16.3,2.8-24.1v0 c2.4-7.9,5.6-13.5,10.4-18.1c4.8-4.7,9.6-7.1,15.3-7.4c0.5,0,0.9,0,1.3,0c5.3,0,9.9,1.8,14.7,5.6c5.2,4.2,9.1,9.5,12.4,16.9 c3.3,7.4,5,14.9,5.5,23.6c0.2,3.8,0.2,7.2-0.1,10.6l0,0.3l-0.3,0.1c-1,0.3-1.9,0.6-2.9,0.9c-5.5,1.9-9.8,4-14,6.7l-0.9,0.6 l0.2-1.1c0.4-2.9,0.5-5.8,0.1-9.1c0-0.2,0-0.3,0-0.6c-0.4-4.3-1.3-7.8-2.9-11.6c-1.6-3.8-3.4-6.5-5.8-8.5 c-2.1-1.8-4.1-2.6-6.2-2.6c-0.2,0-0.4,0-0.7,0c-2.4,0.2-4.5,1.4-6.4,3.8c-1.9,2.3-3.2,5.3-4.2,9.4c-0.9,4-1.2,7.9-0.8,12.4 c0,0.1,0,0.2,0,0.2c0,0.1,0,0.2,0,0.3c0.4,4.4,1.3,8,2.9,11.6c1.6,3.7,3.4,6.4,5.8,8.5c0.4,0.4,0.8,0.7,1.2,0.9l0.6,0.4l-0.5,0.4 c-0.8,0.6-1.6,1.2-2.2,1.8c-1.4,1.1-2.6,2.1-4.1,3.1c-1.3,1-2.9,2.1-4.7,3.5L272.5,215.9z M260.4,153.3c-2.4,7.7-3.2,15-2.7,23.7 c0.5,8.7,2.2,16,5.4,23.3c2.7,6.1,5.7,10.6,9.5,14.3c1.7-1.3,3.2-2.3,4.4-3.2c1.4-1,2.6-2,4-3.1c0.5-0.4,1.1-0.9,1.7-1.4 c-0.2-0.2-0.5-0.4-0.7-0.6c-2.5-2.2-4.4-5-6.1-8.8c-1.6-3.7-2.5-7.4-2.9-12c0-0.1,0-0.2,0-0.2c0-0.1,0-0.2,0-0.3 c-0.4-4.6-0.1-8.6,0.8-12.7c1-4.2,2.4-7.3,4.4-9.8c2.1-2.6,4.4-3.9,7.1-4.1c0.3,0,0.6,0,0.8,0c2.4,0,4.6,0.9,6.8,2.9 c2.5,2.2,4.4,4.9,6.1,8.9c1.6,3.9,2.5,7.5,3,11.9c0,0.2,0,0.3,0,0.5c0.3,2.9,0.3,5.6,0,8.3c4-2.5,8.1-4.5,13.3-6.3 c0.9-0.3,1.8-0.6,2.7-0.8c0.3-3.2,0.3-6.5,0.1-10l0-0.1c-0.5-8.5-2.2-15.9-5.4-23.2c-3.2-7.2-7-12.4-12.1-16.5 c-4.6-3.7-9-5.4-14.1-5.4c-0.4,0-0.8,0-1.3,0c-5.5,0.3-10,2.5-14.6,7.1C265.9,140.1,262.8,145.6,260.4,153.3L260.4,153.3z" class="st0"/><path d="M334.9,305.1c-1.2,0-2.5,0-3.8-0.1c-6.1-0.4-11.4-1.5-16.2-3.6c-3.9-1.7-7.5-3.9-11.7-7.3 c-2.4-1.9-4.6-4-7-6.1c-4.5-4.1-9.1-8.3-14.9-11.7l-0.1-0.1c-13.2-7.5-22-16.7-24.8-25.9c-2.6-8.4-0.1-15.5,7.1-20.9l0,0 c7.9-6,13.4-10,17.3-12.8c0.9-0.7,1.7-1.2,2.3-1.7c2-1.4,3-2.2,3.9-3v0l0.1-0.1c0.7-0.6,1.3-1.3,2.1-2c6-5.9,15.2-14.7,28.2-19.2 c5.4-1.9,11.1-2.8,16.9-2.9c0.1,0,0.1,0,0.2,0c13.3,0,27.9,5.1,43.4,15c6.2,4,11.5,5.9,18.8,8.4c5.2,1.8,11.1,3.8,18.9,7.2 c8.6,3.5,14.5,8.3,17.4,14.1c2.6,5.2,2.8,10.9,0.5,17c-4.8,12.8-19.8,24.8-38.4,30.6c-6.4,2.1-12.2,5.8-18.4,9.8 c-3,1.9-6.1,3.9-9.3,5.8C359.3,300.4,349,305.1,334.9,305.1z M281.8,275.5c5.9,3.5,10.6,7.7,15.1,11.9c2.3,2.1,4.6,4.2,6.9,6.1 c4.1,3.3,7.6,5.5,11.5,7.1c4.7,2,9.9,3.2,15.9,3.5c15.8,0.9,27-4.2,35.9-9.2c3.2-1.8,6.3-3.8,9.3-5.8c6.2-4,12.1-7.8,18.6-9.9 c18.3-5.7,33.1-17.5,37.8-30c2.2-5.8,2-11.3-0.5-16.2c-2.8-5.6-8.5-10.1-16.9-13.6c-7.9-3.4-13.7-5.4-18.9-7.2 c-7.4-2.6-12.8-4.4-19.1-8.5c-15.3-9.9-29.8-14.9-42.9-14.9c-0.1,0-0.1,0-0.2,0c-5.7,0-11.2,1-16.6,2.8 c-12.8,4.4-21.8,13.1-27.8,18.9c-0.7,0.7-1.3,1.3-1.9,1.9v0l-0.2,0.1c-0.9,0.9-2.1,1.7-4.1,3.2c-0.7,0.5-1.4,1-2.3,1.7 c-3.9,2.8-9.3,6.8-17.3,12.8l0,0c-6.9,5.2-9.2,11.9-6.8,19.9C260.1,259.1,268.7,268.1,281.8,275.5L281.8,275.5z" class="st0"/><path d="M210.4,838.2c-20.6,0-44.1-6.3-67.2-18.4h0l-0.1-0.1c-24.2-12.8-51.2-15.7-75-18.3 c-9.9-1.1-19.3-2.1-27.3-3.7c-14.4-3-22.4-7.6-26.2-14.9c-4.6-9.1-3.2-24.1,4.3-44.6l0.1-0.2c3.7-11.2,1.7-23.4-0.2-35.2 c-0.3-1.6-0.5-3.1-0.7-4.6c-2.2-14.5-2.8-25.8,1.6-33.9c6-11.6,14.9-15.5,25-19.2c1.7-0.6,3.4-1.2,5.1-1.8 c9-3,19.3-6.5,27.5-14.7l0.1-0.1c4.7-5,8.8-10.6,12.8-16.1c3.7-5.1,7.2-9.9,11.1-14.1c5.9-6.3,12.9-12.1,24-12.2 c0.1,0,0.2,0,0.3,0c1.9,0,3.8,0.2,5.8,0.5c13,2,24.8,10.6,36.9,27.1l32.8,59.8c6.3,13.1,17.5,27,29.4,41.7 c4.4,5.5,9,11.1,13.3,16.8c19.2,25.2,27.5,43.3,26.2,56.9l0,0.1c-1.9,25.5-15.6,41.3-40.7,47.1 C223.4,837.5,217,838.2,210.4,838.2z M143.4,818.8L143.4,818.8l0.1,0.1c30.3,15.9,61.5,21.8,85.5,16.3 c24.6-5.6,38-21.1,39.9-46.1l0-0.1l0.5,0l-0.5,0c1.3-13.2-7.2-31.6-26-56.2c-4.3-5.6-8.9-11.3-13.3-16.8 c-11.9-14.7-23.1-28.7-29.4-41.9l0,0l-0.1-0.1l-32.7-59.6c-12-16.2-23.5-24.7-36.2-26.6c-1.9-0.3-3.8-0.5-5.6-0.5 c-0.1,0-0.2,0-0.4,0c-10.7,0.1-17.5,5.8-23.3,11.9c-3.8,4.1-7.3,8.9-11,14c-4,5.5-8.1,11.2-12.9,16.2l-0.1,0.1 c-8.4,8.4-18.7,11.9-27.9,15c-1.7,0.6-3.4,1.2-5.1,1.8c-9.9,3.6-18.6,7.4-24.5,18.6c-4.3,7.9-3.7,19-1.5,33.3 c0.2,1.5,0.5,3.1,0.7,4.6c1.9,11.9,3.9,24.2,0.2,35.7l-0.1,0.2c-7.4,20.2-8.9,35-4.4,43.8c3.6,7,11.5,11.5,25.5,14.4 c7.9,1.7,17.3,2.7,27.2,3.7C92,803,119.1,805.9,143.4,818.8z" class="st0"/><path d="M349.2,768.8c-29.9,0-57.6-8.6-82.7-25.8l-0.1-0.1c-4.7-7.4-10.1-14.6-14.3-20.1c-3.2-4.3-6.7-8.6-9.9-12.6 l-0.6-0.8l1,0c0,0,0.1,0,0.1,0c6.3,0,11.7-1,16.2-3c5.4-2.5,9.3-6.4,11.1-11.5c3.9-10.6-0.4-25.2-12.3-41.3 c-13.4-18.1-35.5-36.9-64-54.4l-0.2-0.2c-20.9-13.1-34.8-29.9-41.2-50.2c-5.4-17.1-5.6-37.1-0.5-59.2c9-39.4,32.9-78.4,45.7-99.3 l0.1-0.1c0.3-0.2,1.4-1,2-0.4c0.7,0.6,2.4,2.1-15.8,35.9c-16.5,31.2-38.9,90.1-5.3,136.4c1.1-33.3,9.1-68.4,23.1-101.8 c3.4-7.8,7.6-16.6,11.9-26c21.6-46.4,51.2-110.1,54-162.6l0-0.9l0.7,0.5c1.7,1.2,7.6,5.2,10.2,6.7h0l0.1,0.1 c5,3,9.2,6.7,13.6,10.7c2.4,2.2,4.9,4.5,7.6,6.6c6.4,5.1,15.7,11.2,31,12.1c17.8,1,30.5-4.9,39.5-10.1c3.6-2,6.9-4.1,10.1-6.2 c6.1-3.9,11.3-7.2,16.5-8.9l0.1-0.1l0.1,0c16.2-5.1,29.3-13.9,37-24.9l0.6-0.9l0.3,1.1c12.8,50.5,42.5,123.6,62.2,160.2 c19.8,36.8,33.1,73.1,39.5,108c5.3-0.1,11.2,0.6,17.6,2.2c12.3-32.2,4.8-64.5-3.7-86c-9.7-24.6-24.8-45.4-35.4-55.2 c-5.3-5.1-7.6-8.7-6.8-10.5c0.3-0.6,1-1.3,2.8-1.2l0.2,0l0.1,0.1c22.4,19.9,49.4,58.2,59.2,99c5,21,5.2,41,0.8,59.6 c2.3,1,4.7,2,7,3.1c38,18.5,50.9,34.6,44.4,55.7l-0.1,0.4l-0.4,0c-1.9-0.1-3.9-0.1-6.4,0c-0.2,0-0.4,0-0.6,0h-0.7l0.2-0.7 c5.1-16.2-5.9-28.7-37.9-43.2c-21.7-9.6-38.9-11.5-49.8-5.5c-7,3.9-11.4,11.1-13,21.4c-0.3,1.6-0.5,3.1-0.7,4.7l0,0.3l-0.3,0.1 c-2.5,0.9-5,2-7.3,3.3c-13.8,7.6-23.1,21.4-28.3,42.2c-4.6,18.3-5.9,40.2-7.3,66.8c-0.7,12-5.4,27.9-10.3,44.8l-1.2,4l-0.1,0.1 c-28.8,20.5-60.8,33.2-92.5,36.6C360.5,768.5,354.8,768.8,349.2,768.8z M267.1,742.3c65.8,44.8,141.8,23.4,191-11.7l1.1-3.7 c4.9-16.8,9.5-32.7,10.3-44.6c1.3-26.7,2.7-48.6,7.3-67c5.3-21.1,14.7-35.1,28.8-42.8c2.3-1.3,4.7-2.3,7.2-3.2 c0.2-1.5,0.4-2.9,0.7-4.4c1.6-10.6,6.1-18.1,13.5-22.1c11.1-6.1,28.6-4.2,50.6,5.5c32.2,14.6,43.5,27.3,38.6,43.7 c2.2-0.1,4.1-0.1,5.9,0c6.1-20.6-6.3-35.8-44-54.1c-2.4-1.1-4.9-2.2-7.3-3.3l-0.4-0.2l0.1-0.4c4.6-18.6,4.3-38.6-0.7-59.6 c-9.6-40.5-36.4-78.6-58.7-98.4c-0.7,0-1.4,0.1-1.7,0.6c-0.2,0.5-0.4,2.7,6.5,9.4c10.7,9.8,25.8,30.8,35.6,55.6 c8.6,21.7,16.2,54.5,3.6,87.1l-0.2,0.4l-0.4-0.1c-6.6-1.7-12.8-2.5-18.2-2.3l-0.4,0l-0.1-0.4c-6.3-34.9-19.6-71.3-39.5-108.1 c-19.6-36.4-49.1-108.9-62-159.4c-7.9,10.8-21,19.4-37,24.4l0,0c-5.1,1.7-10.3,5-16.4,8.8c-3.2,2-6.5,4.1-10.1,6.2 c-9.1,5.2-22.1,11.3-40.1,10.2c-15.6-0.9-25.1-7-31.6-12.3c-2.7-2.2-5.2-4.5-7.7-6.7c-4.3-3.9-8.4-7.6-13.3-10.5h-0.1l-0.1-0.1 c-2.4-1.4-7.3-4.7-9.6-6.3c-3.1,52.6-32.5,115.8-54,162.1c-4.4,9.4-8.5,18.2-11.9,26c-14.2,33.7-22.1,69.3-23.1,102.8l0,1.4 l-0.9-1.1c-35.1-46.8-12.3-106.9,4.4-138.6c16-29.8,16.4-34.1,16-34.7c0,0-0.2,0.1-0.7,0.4c-12.8,20.9-36.5,59.6-45.5,98.9 c-5,22-4.9,41.7,0.5,58.7c6.3,20.1,20.1,36.8,41,49.8l0.2,0.2c28.4,17.5,50.6,36.3,64,54.5c12.1,16.4,16.5,31.4,12.5,42.3 c-2,5.3-6,9.5-11.7,12.1c-4.4,2-9.6,3-15.7,3.1c3,3.8,6.2,7.8,9.2,11.8C257,727.6,262.4,734.9,267.1,742.3z" class="st0"/><path d="M513.5,847.9c-22.8,0-40.4-11.3-51.2-32.8l0-0.1c-6.5-12.3-5.9-31.7,1.9-61c1.8-6.7,3.8-13.6,5.8-20.3 c5.1-17.2,10-33.5,10.8-47.7c1.3-25.3,2.7-47.6,7-65c4.6-18.3,11.7-29.3,23.2-35.6c0.6-0.3,1.1-0.6,1.7-0.9l0.7-0.3l0,0.8 c1.3,20.8,11.4,43.9,31.2,48.9c21.1,5.6,51.1-12.5,63.9-27.2l0.1-0.2l0.2,0c0.8,0,1.7-0.1,2.5-0.1c1.7-0.1,3.4-0.1,5-0.2 c10.9-0.3,20.7,0.2,30.7,8.9c7.9,6.7,11.5,19.9,14.2,31.8c0.3,1.4,0.6,2.8,0.9,4.2c2.7,12.1,5.5,24.6,13.6,33.7l0.1,0.1 c15.6,17.3,23.5,31.6,22.9,41.6v0c-0.5,8.1-5.7,14.4-18.1,21.9c-6.3,3.8-14.1,7.5-22.4,11.5c-21.1,10.1-47.3,22.6-65.6,44.8 c-21.3,25.3-48,40.9-73.4,42.9C517.3,847.9,515.4,847.9,513.5,847.9z M512.4,585.8c-0.3,0.2-0.6,0.3-1,0.5 c-11.2,6.1-18.2,16.9-22.7,35c-4.3,17.3-5.7,39.5-7,64.7c-0.9,14.3-5.7,30.7-10.9,48c-2,6.6-4,13.5-5.8,20.2 c-7.7,29-8.3,48.2-2,60.3l0,0.1c10.6,21.2,27.9,32.3,50.3,32.3c1.9,0,3.7-0.1,5.7-0.2c25.1-2,51.6-17.5,72.7-42.6 c18.5-22.4,44.8-34.9,65.9-45c8.2-3.9,16-7.6,22.3-11.4c12.1-7.3,17.2-13.4,17.6-21.1v0c0.4-6.7-3.2-19.3-22.7-40.9l-0.1-0.1 c-8.3-9.4-11.1-22-13.8-34.1c-0.3-1.4-0.6-2.8-0.9-4.2c-2.7-11.7-6.2-24.7-13.8-31.2l-0.1-0.1c-9.7-8.5-19.3-8.9-30-8.7 c-1.6,0-3.3,0.1-5,0.2c-0.7,0-1.5,0.1-2.3,0.1c-11.3,12.9-35.8,28.4-56.1,28.4c-3,0-5.8-0.3-8.6-1.1 C524.3,629.9,513.9,606.8,512.4,585.8z" class="st0"/><path d="M329.5,280.3c-15.9,0-31-5.8-46.1-17.8c-4.8-3.8-8.7-7.5-11.9-10.5l-1.5-1.4c-4.7-3.7-5.2-8.3-4.4-10.3 c0.4-1,1.1-1.5,2-1.5c2.8,0.4,4.1,2.7,5.3,5c0.7,1.3,1.3,2.5,2.2,3.3l1.4,1.3c3.1,2.9,7,6.6,11.6,10.2 c13.8,10.9,27.3,16.2,41.5,16.2c13,0,29.3-5.6,49.9-17.1c5.5-3.1,12.2-8.1,18.2-12.6c1.7-1.3,3.4-2.5,5-3.7 c2.3-1.7,3.6-3.6,4.7-5.1c1.5-2.2,2.7-3.9,5.7-3.5c1.4,0.2,2.2,0.7,2.5,1.6c0.8,2.5-3.6,7-7.5,10.4c-6.4,5.6-16.6,13.1-24.8,17.4 l-1.6,0.8C366,271.1,348.4,280.3,329.5,280.3z M267.5,239.7c-0.5,0-0.8,0.5-0.9,0.9c-0.7,1.9,0,6,4.1,9.2l0,0l1.5,1.4 c3.2,3,7.1,6.7,11.9,10.5c15,11.9,29.8,17.6,45.5,17.6c18.7,0,36.1-9.1,51.5-17.2l1.6-0.8c8.2-4.3,18.3-11.8,24.7-17.3 c5-4.3,7.6-7.8,7.2-9.3c-0.1-0.5-0.7-0.8-1.6-0.9c-2.4-0.3-3.2,1-4.7,3.1c-1.1,1.6-2.5,3.5-4.9,5.3c-1.6,1.2-3.3,2.4-5,3.7 c-6,4.5-12.8,9.6-18.3,12.7c-20.7,11.6-37.2,17.2-50.4,17.2c-14.4,0-28.1-5.4-42.1-16.4c-4.6-3.6-8.5-7.3-11.6-10.3l-1.4-1.3 c-1-0.9-1.7-2.3-2.4-3.6C270.9,242,269.8,240,267.5,239.7C267.5,239.7,267.5,239.7,267.5,239.7z" class="st0"/><path d="M355.2,211c-0.1,0-0.1,0-0.2,0c-1.4,0-2.5-0.9-3.5-1.7c-0.6-0.5-1.1-0.9-1.7-1.2c-0.6-0.3-1.5-0.5-2.3-0.7 c-1.7-0.4-3.4-0.7-3.9-2.3l0,0c-0.3-1,0.6-2,1.3-2.4c3.4-1.9,7.9-0.5,9.7,0.2c1.8,0.7,6.1,2.4,5.7,5.3 C360.1,210.2,357.1,211,355.2,211z M349.1,202.6c-1.2,0-2.5,0.2-3.6,0.9c-0.5,0.3-1,0.9-0.8,1.2l0,0c0.3,1.1,1.7,1.4,3.1,1.7 c0.9,0.2,1.8,0.4,2.5,0.8c0.7,0.3,1.3,0.8,1.8,1.3c1,0.8,1.9,1.5,2.9,1.5c1.6,0.1,4.2-0.6,4.4-2c0.3-1.9-2.8-3.4-5.1-4.2 C353.2,203.3,351.2,202.6,349.1,202.6z" class="st0"/><path d="M313.2,211c-2,0-4.9-0.8-5.2-2.9c-0.4-2.9,3.9-4.6,5.7-5.3c1.8-0.7,6.3-2.1,9.7-0.2c0.7,0.4,1.6,1.4,1.3,2.4 c-0.5,1.6-2.2,2-3.9,2.3c-0.8,0.2-1.7,0.4-2.3,0.7c-0.6,0.3-1.1,0.7-1.7,1.2c-1,0.8-2.1,1.7-3.5,1.7 C313.4,211,313.3,211,313.2,211z M319.4,202.6c-2.1,0-4.2,0.7-5.2,1.1c-2.3,0.9-5.4,2.3-5.1,4.2c0.2,1.4,2.6,2,4.4,2h0 c1,0,2-0.7,2.9-1.5c0.6-0.5,1.2-0.9,1.8-1.3c0.7-0.4,1.6-0.6,2.5-0.8c1.4-0.3,2.8-0.6,3.1-1.7c0.1-0.4-0.4-1-0.8-1.2 C321.9,202.9,320.6,202.6,319.4,202.6z" class="st0"/></g></g></switch></svg>