<svg xmlns="http://www.w3.org/2000/svg" xmlns:svg="http://www.w3.org/2000/svg" xmlns:xlink="http://www.w3.org/1999/xlink" id="Calque_1" x="0" y="0" version="1.1" viewBox="0 0 712 860" xml:space="preserve" style="enable-background:new 0 0 712 860"><style type="text/css">.st0{fill:#202020}.st1{fill:#d6a312}.st2{fill:#fff}</style><switch><g><path id="path3" d="M683.9,677.7C683.9,677.7,683.9,677.7,683.9,677.7c-6.1-6.9-9-19.6-12.1-33.1 c-3.1-13.5-6.6-28.1-17.7-37.5c0,0-0.1,0-0.1-0.1c-2.2-1.9-4.5-3.5-6.7-4.9c-2.3-1.3-4.6-2.5-6.9-3.3 c15.4-45.8,9.4-91.3-6.2-132.5c-19.1-50.5-52.5-94.6-78-124.7c-28.5-36-56.4-70.1-55.9-120.6c0.8-77,8.5-219.8-127.1-220 c-5.5,0-11.3,0.2-17.3,0.7C204.7,13.9,244.8,173.9,242.6,227.5c-2.8,39.2-10.7,70.1-37.7,108.4c-31.6,37.6-76.2,98.6-97.3,162 c-10,29.9-14.7,60.4-10.3,89.3c-1.4,1.2-2.7,2.5-3.9,3.8c-9.3,9.9-16.2,21.9-23.8,30c-7.2,7.1-17.3,9.9-28.5,13.9 c-11.2,4-23.5,9.9-31,24.3c0,0,0,0,0,0c0,0,0,0,0,0.1c-3.5,6.5-4.7,13.6-4.7,20.8c0,6.6,1,13.4,2,19.8c2.1,13.5,4.2,26.2,1.4,34.8 c-8.9,24.2-10,41-3.8,53.1c6.3,12.2,19.1,17.5,33.6,20.6c29.1,6.1,68.4,4.6,99.4,21l2.7-5l-2.6,5c33.2,17.4,66.9,23.5,93.7,17.4 c19.5-4.4,35.3-16,43.4-33.9c21-0.1,44-9,81-11c25-2,56.3,8.9,92.3,6.9c0.9,3.9,2.3,7.7,4.2,11.2c0,0,0,0.1,0.1,0.1 c13.9,27.9,39.9,40.7,67.5,38.5c27.7-2.2,57.1-18.5,80.8-46.8l-4.4-3.7l4.4,3.6c22.7-27.5,60.3-38.9,85.2-53.9 c12.5-7.5,22.6-16.9,23.4-30.6C710.4,713.5,702.4,698.2,683.9,677.7z" class="st0"/><g><path id="path5" d="M698.2,726.6c-0.5,8.4-6.6,14.7-17.9,21.5c-22.6,13.6-62.6,25.5-88.1,56.4 c-22.2,26.4-49.2,40.9-73,42.8s-44.4-8-56.5-32.3l0,0l0-0.1c-7.5-14.3-4.4-36.8,1.9-60.6c6.3-23.8,15.4-48.2,16.6-68.1V686 c1.3-25.4,2.7-47.7,7-64.8c4.3-17.2,11-28.8,22.9-35.3c0.6-0.3,1.1-0.6,1.7-0.9c1.4,22,12.3,44.5,31.5,49.4 c21.1,5.6,51.5-12.5,64.4-27.3c2.6-0.1,5.1-0.2,7.5-0.3c11.3-0.3,20.7,0.4,30.4,8.8l0,0l0,0c7.4,6.3,11,18.2,14,31.5 c3.1,13.3,5.5,27.8,14.7,38.1l0,0l0,0C693.1,704.9,698.7,718.1,698.2,726.6z" class="st1"/><path id="path7" d="M269.5,789L269.5,789l0,0.1c-2,26.7-17.1,41.3-40.3,46.6c-23.1,5.3-54.5,0-85.9-16.4c0,0,0,0,0,0 c-34.7-18.4-75.9-16.5-102.4-22.1c-13.2-2.8-21.9-6.9-25.8-14.6c-4-7.7-4.1-21.2,4.4-44.2l0-0.1l0-0.1 c4.2-12.8,1.1-26.9-0.9-40.1c-2-13.2-3-25.2,1.5-33.6l0-0.1c5.8-11.1,14.2-15.1,24.7-18.9c10.5-3.8,23-6.7,32.8-16.6l0.1,0l0.1,0 c9.1-9.6,15.9-21.6,23.9-30.2c6.7-7.2,13.5-12,23.7-12c0.1,0,0.2,0,0.3,0c1.8,0,3.7,0.2,5.7,0.5c13.5,2,25.3,11.5,36.6,26.9 l32.7,59.7l0,0l0,0c8.7,18.2,27.1,38.2,42.7,58.6C259,752.8,271.1,773.3,269.5,789z" class="st1"/></g><path id="path9" d="M432.8,232.7c-2.6-5.1-8-10.1-17.1-13.8l0,0l0,0c-19-8.1-27.3-8.7-37.9-15.6 c-17.3-11.1-31.5-15-43.4-14.9c-6.2,0-11.8,1.1-16.7,2.8c-14.5,5-24,15.3-30,21l0,0c0,0,0,0,0,0c-1.2,1.1-2.7,2.1-6.4,4.8 c-3.7,2.7-9.3,6.8-17.3,12.8c-7.1,5.3-9.4,12.3-7,20.4c2.5,8.1,10.3,17.5,24.6,25.6l0,0l0,0c8.9,5.2,15,12.3,22,17.9 c3.5,2.8,7.2,5.3,11.6,7.2c4.4,1.9,9.6,3.2,16,3.5c15.2,0.9,26.3-3.7,36.2-9.3c9.9-5.6,18.2-12.5,27.8-15.6l0,0l0,0 c19.7-6.1,33.7-18.5,38.1-30.3C435.5,243.4,435.4,237.8,432.8,232.7z" class="st1"/><path id="path13" d="M622.4,595.5c-2.2-0.1-4.3-0.1-6.4,0c-0.2,0-0.4,0-0.6,0c5.4-17-6.5-29.5-38.2-43.8 c-32.8-14.4-59-13-63.4,16.3c-0.3,1.5-0.5,3.1-0.7,4.7c-2.5,0.9-4.9,1.9-7.4,3.3c-15.4,8.4-23.8,23.7-28.5,42.5 c-4.7,18.8-6,41.4-7.3,66.9c0,0,0,0,0,0c-0.8,12.8-6.1,30.2-11.4,48.5c-53.8,38.4-128.4,55-191.8,11.7 c-4.3-6.8-9.2-13.5-14.3-20.2c-3.2-4.2-6.6-8.5-9.9-12.6c6.5,0,12-1.1,16.5-3.1c5.6-2.5,9.5-6.6,11.4-11.8 c3.9-10.4,0-25-12.4-41.8c-12.4-16.7-33.3-35.6-64.1-54.5c0,0,0,0,0,0c-22.6-14.1-35.3-31.3-41.2-50c-5.9-18.7-5.1-39-0.5-59 c8.8-38.4,31.3-75.7,45.6-99.1c3.9-2.8,1.4,5.3-14.5,34.8c-14.3,27-40.9,89.4-4.4,138.1c1-34.6,9.3-70,23.1-103 c20.2-45.9,62.5-125.4,65.9-188.8c1.7,1.3,7.7,5.3,10.3,6.8c0,0,0,0,0,0c7.8,4.6,13.6,11.3,21.1,17.3c7.6,6.1,17,11.3,31.3,12.2 c1.4,0.1,2.7,0.1,4,0.1c14.7,0,26.2-4.8,35.8-10.3c10.4-5.9,18.7-12.5,26.6-15.1c0,0,0,0,0,0c16.6-5.2,29.8-14.4,37.4-25.1 c12.9,50.9,43,124.5,62.3,160.4c10.3,19,30.7,59.5,39.5,108.3c5.6-0.2,11.8,0.6,18.3,2.3c23.1-59.8-19.6-124.2-39.1-142.2 c-7.9-7.6-8.3-11.1-4.3-10.9c21.1,18.7,48.9,56.3,59,98.8c4.6,19.4,5.6,39.7,0.6,59.8c2.4,1,4.9,2.1,7.4,3.3 C615.3,558.4,629,574.1,622.4,595.5z" class="st2"/><path id="path15" d="M434.5,174c0.1,10.1-1.7,18.7-5.5,27.4c-2.2,5-4.7,9.2-7.7,12.8c-1-0.5-2.1-1-3.2-1.4c-3.8-1.6-7.2-3-10.2-4.1 c-3-1.1-5.4-1.9-7.8-2.8c1.8-2.1,5.2-4.6,6.5-7.8c2-4.8,2.9-9.4,3.1-14.9c0-0.2,0.1-0.4,0.1-0.7c0.1-5.3-0.6-9.8-2.1-14.5 c-1.6-4.9-3.7-8.4-6.7-11.3c-3-2.9-6-4.2-9.5-4.4c-0.2,0-0.3,0-0.5,0c-3.4,0-6.3,1.2-9.3,3.7c-3.2,2.6-5.5,6-7.5,10.8 c-2,4.7-2.9,9.4-3.1,15c0,0.2,0,0.4,0,0.6c-0.1,3.1,0.1,5.9,0.6,8.6c-6.9-3.4-15.7-5.9-21.8-7.4c-0.4-2.6-0.5-5.3-0.6-8.2v-0.8 c-0.1-10.1,1.5-18.7,5.4-27.4c3.9-8.8,8.7-15.1,15.4-20.2c6.8-5.1,13.4-7.5,21.2-7.6h0.4c7.7,0,14.3,2.3,21,7.2 c6.9,5,11.8,11.2,15.8,19.9c3.9,8.5,5.8,16.8,6,26.6C434.4,173.6,434.4,173.8,434.5,174L434.5,174z" class="st2"/><path id="path17" d="M318.4,184.1c-1,0.3-2,0.6-3,0.9c-5.5,1.9-9.9,4-14.1,6.8c0.4-2.9,0.5-5.9,0.1-9.2c0-0.2,0-0.3,0-0.5c-0.4-4.4-1.4-8.1-2.9-11.8 c-1.6-3.9-3.5-6.6-5.9-8.7c-2.2-1.9-4.3-2.8-6.6-2.8c-0.2,0-0.5,0-0.7,0c-2.6,0.2-4.7,1.5-6.8,3.9c-2,2.5-3.4,5.5-4.3,9.6 c-1,4.1-1.2,8-0.8,12.6c0,0.2,0,0.3,0,0.5c0.4,4.4,1.3,8.1,2.9,11.8c1.6,3.8,3.5,6.6,5.9,8.7c0.4,0.4,0.8,0.7,1.2,0.9 c-2.5,1.9-4.2,3.3-6.3,4.9c-1.3,1-2.9,2.1-4.8,3.5c-4-3.8-7.1-8.5-9.9-14.7c-3.2-7.4-5-14.7-5.5-23.4v-0.1 c-0.5-8.7,0.4-16.2,2.8-23.9c2.4-7.7,5.6-13.3,10.3-17.9c4.6-4.6,9.3-6.9,15-7.2c0.4,0,0.9,0,1.3,0c5.1,0,9.7,1.7,14.4,5.5 c5.1,4.1,9,9.3,12.2,16.7c3.3,7.4,5,14.7,5.5,23.4v0.1C318.8,177.3,318.7,180.8,318.4,184.1L318.4,184.1z" class="st2"/><g><path id="path28396-7" d="M344.1,204.9 c0.6,2.1,4,1.7,5.9,2.7c1.7,0.9,3.1,2.8,5,2.8c1.8,0.1,4.7-0.6,4.9-2.4c0.3-2.4-3.2-3.9-5.4-4.8c-2.9-1.1-6.6-1.7-9.3-0.2 C344.6,203.4,343.9,204.2,344.1,204.9L344.1,204.9z" class="st0"/><path id="path5461" d="M324.3,204.9 c-0.6,2.1-4,1.7-5.9,2.7c-1.7,0.9-3.1,2.8-5,2.8c-1.8,0.1-4.7-0.6-4.9-2.4c-0.3-2.4,3.2-3.9,5.4-4.8c2.9-1.1,6.6-1.7,9.3-0.2 C323.9,203.4,324.5,204.2,324.3,204.9L324.3,204.9z" class="st0"/><path id="path11" d="M382.9,261.7 c-15.6,8.2-33.9,18-53.4,18c-19.4,0-34.8-9-45.8-17.7c-5.5-4.4-10-8.7-13.4-11.9c-5.9-4.6-5.2-11.1-2.8-10.9 c4,0.5,4.6,5.8,7.2,8.2c3.4,3.2,7.8,7.4,13,11.5c10.4,8.3,24.4,16.3,41.8,16.3c17.4,0,37.7-10.2,50.1-17.2c7-3.9,16-11,23.3-16.4 c5.6-4.1,5.4-9,10-8.5s1.2,5.5-5.3,11.1S391.1,257.4,382.9,261.7z" class="st0"/></g></g></switch></svg>